#OBJ
#T-FLEX CAD ObjGenerator generate date:5.10.2020 22:14:50
mtllib materials.mtl
v -0.000475 -0.004928 0.001
v -0.000069 -0.003994 0.001
v -0.000447 -0.003904 0.001
v 0.000577 -0.003959 0.001
v 0.000147 -0.004006 0.001
v 0.000265 -0.004998 0.001
v 0.002349 -0.003156 0.001
v 0.002329 -0.003139 0.001
v 0.001565 -0.00323 0.001
v 0.002513 0.004704 0.001
v 0.002487 0.004781 0.001
v 0.001092 0.004006 0.001
v 0.001986 0.004999 0.001
v -0.001995 0.004999 0.001
v 0.002197 0.00498 0.001
v -0.00077 -0.003736 0.001
v -0.001528 -0.004385 0.001
v -0.001015 -0.00473 0.001
v 0.002315 0.004943 0.001
v -0.00216 0.004023 0.001
v -0.001994 0.004006 0.001
v -0.002447 0.004248 0.001
v 0.001231 -0.003624 0.001
v 0.000916 -0.003836 0.001
v 0.001489 -0.004663 0.001
v 0.002389 0.0049 0.001
v -0.002476 0.004668 0.001
v -0.002493 0.004503 0.001
v 0.001497 -0.003331 0.001
v 0.001955 -0.004312 0.001
v -0.001111 -0.003434 0.001
v -0.001326 -0.003126 0.001
v -0.002036 -0.003829 0.001
v -0.001497 -0.002326 0.001
v -0.00143 -0.001972 0.001
v -0.002425 -0.001814 0.001
v 0.002445 0.004848 0.001
v -0.00234 0.0049 0.001
v -0.002393 0.004848 0.001
v -0.002478 0.004349 0.001
v 0.002404 -0.003765 0.001
v 0.000927 -0.004899 0.001
v -0.001459 -0.002778 0.001
v -0.002474 -0.002708 0.001
v -0.002321 -0.003307 0.001
v -0.0015 -0.002422 0.001
v -0.002493 -0.002392 0.001
v -0.001284 -0.001659 0.001
v -0.002224 -0.001271 0.001
v -0.002167 0.004981 0.001
v -0.002264 0.004948 0.001
v -0.00244 0.004772 0.001
v 0.001652 -0.003124 0.001
v 0.001933 -0.003 0.001
v 0.000155 -0.004999 0.001
v -0.002265 0.004059 0.001
v -0.002154 -0.001143 0.001
v 0.002492 -0.003445 0.001
v 0.00247 -0.00334 0.001
v 0.001828 -0.003018 0.001
v 0.001737 -0.003058 0.001
v 0.002425 -0.003248 0.001
v 0.00244 -0.003707 0.001
v 0.002481 -0.003597 0.001
v 0.002438 0.004291 0.001
v 0.002508 0.004471 0.001
v 0.00222 -0.003062 0.001
v 0.002094 -0.003014 0.001
v 0.002494 -0.003487 0.001
v 0.002524 0.0046 0.001
v 0.001965 -0.002999 0.001
v -0.002402 0.004169 0.001
v -0.002341 0.004106 0.001
v 0.002404 0.004229 0.001
v 0.00244 -0.003707 0
v 0.002404 -0.003765 0
v 0.001565 -0.00323 0
v 0.002445 0.004848 0
v 0.002487 0.004781 0
v 0.001092 0.004006 0
v -0.001994 0.004006 0
v -0.001995 0.004999 0
v 0.002425 -0.003248 0
v 0.00247 -0.00334 0
v 0.002494 -0.003487 0
v 0.002481 -0.003597 0
v 0.002349 -0.003156 0
v 0.001933 -0.003 0
v 0.001652 -0.003124 0
v 0.001737 -0.003058 0
v 0.002492 -0.003445 0
v 0.001965 -0.002999 0
v 0.002094 -0.003014 0
v 0.002524 0.0046 0
v 0.002508 0.004471 0
v -0.002265 0.004059 0
v -0.002341 0.004106 0
v -0.002402 0.004169 0
v 0.00222 -0.003062 0
v 0.001828 -0.003018 0
v 0.000265 -0.004998 0
v 0.000147 -0.004006 0
v 0.000577 -0.003959 0
v 0.002513 0.004704 0
v -0.002447 0.004248 0
v -0.00216 0.004023 0
v 0.002329 -0.003139 0
v 0.000927 -0.004899 0
v 0.000155 -0.004999 0
v -0.000475 -0.004928 0
v -0.000069 -0.003994 0
v -0.002264 0.004948 0
v -0.002167 0.004981 0
v -0.002393 0.004848 0
v -0.00234 0.0049 0
v -0.002476 0.004668 0
v -0.00244 0.004772 0
v -0.001015 -0.00473 0
v -0.000447 -0.003904 0
v -0.002474 -0.002708 0
v -0.002493 -0.002392 0
v -0.0015 -0.002422 0
v -0.002224 -0.001271 0
v -0.001284 -0.001659 0
v -0.00143 -0.001972 0
v -0.002154 -0.001143 0
v 0.002438 0.004291 0
v 0.002389 0.0049 0
v -0.002493 0.004503 0
v 0.001497 -0.003331 0
v 0.001955 -0.004312 0
v 0.001231 -0.003624 0
v 0.000916 -0.003836 0
v -0.001528 -0.004385 0
v -0.002036 -0.003829 0
v -0.001111 -0.003434 0
v -0.002321 -0.003307 0
v -0.001459 -0.002778 0
v -0.001326 -0.003126 0
v -0.001497 -0.002326 0
v -0.002425 -0.001814 0
v 0.002404 0.004229 0
v 0.002315 0.004943 0
v -0.002478 0.004349 0
v 0.001489 -0.004663 0
v -0.00077 -0.003736 0
v 0.002197 0.00498 0
v 0.001986 0.004999 0
v -0.002321 -0.003307 0
v -0.002321 -0.003307 0.001
v -0.002474 -0.002708 0.001
v -0.001015 -0.00473 0.001
v -0.001015 -0.00473 0
v -0.000475 -0.004928 0
v -0.001528 -0.004385 0.001
v -0.001528 -0.004385 0
v -0.002474 -0.002708 0
v -0.002493 -0.002392 0.001
v -0.002493 -0.002392 0
v -0.002036 -0.003829 0
v -0.002036 -0.003829 0.001
v -0.000475 -0.004928 0.001
v 0.000155 -0.004999 0
v 0.000155 -0.004999 0.001
v 0.000265 -0.004998 0
v 0.000265 -0.004998 0.001
v 0.000155 -0.004999 0.001
v 0.002404 -0.003765 0
v 0.002404 -0.003765 0.001
v 0.001955 -0.004312 0.001
v 0.001955 -0.004312 0
v 0.001489 -0.004663 0.001
v 0.001489 -0.004663 0
v 0.000927 -0.004899 0.001
v 0.000927 -0.004899 0
v 0.000155 -0.004999 0
v 0.002494 -0.003487 0
v 0.002494 -0.003487 0.001
v 0.002481 -0.003597 0.001
v 0.002481 -0.003597 0
v 0.00244 -0.003707 0.001
v 0.00244 -0.003707 0
v 0.002404 -0.003765 0.001
v 0.002404 -0.003765 0
v 0.002094 -0.003014 0.001
v 0.002094 -0.003014 0
v 0.001965 -0.002999 0
v 0.00222 -0.003062 0.001
v 0.00222 -0.003062 0
v 0.002329 -0.003139 0.001
v 0.002329 -0.003139 0
v 0.002349 -0.003156 0.001
v 0.002349 -0.003156 0
v 0.00247 -0.00334 0.001
v 0.00247 -0.00334 0
v 0.002425 -0.003248 0
v 0.002492 -0.003445 0.001
v 0.002492 -0.003445 0
v 0.002494 -0.003487 0.001
v 0.002494 -0.003487 0
v 0.002425 -0.003248 0.001
v 0.001965 -0.002999 0.001
v 0.001652 -0.003124 0
v 0.001652 -0.003124 0.001
v 0.001737 -0.003058 0.001
v 0.001565 -0.00323 0
v 0.001737 -0.003058 0
v 0.001828 -0.003018 0.001
v 0.001828 -0.003018 0
v 0.001565 -0.00323 0.001
v 0.001933 -0.003 0.001
v 0.001933 -0.003 0
v 0.001965 -0.002999 0.001
v 0.001965 -0.002999 0
v 0.001565 -0.00323 0.001
v 0.001565 -0.00323 0
v 0.001497 -0.003331 0
v 0.001497 -0.003331 0.001
v 0.001231 -0.003624 0
v 0.001231 -0.003624 0.001
v 0.000916 -0.003836 0
v 0.000916 -0.003836 0.001
v 0.000577 -0.003959 0
v 0.000577 -0.003959 0.001
v 0.000147 -0.004006 0
v 0.000147 -0.004006 0.001
v -0.000447 -0.003904 0.001
v -0.000447 -0.003904 0
v -0.00077 -0.003736 0
v 0.000147 -0.004006 0.001
v 0.000147 -0.004006 0
v -0.000069 -0.003994 0
v -0.001111 -0.003434 0.001
v -0.001111 -0.003434 0
v -0.001326 -0.003126 0
v -0.001326 -0.003126 0.001
v -0.001459 -0.002778 0
v -0.001459 -0.002778 0.001
v -0.0015 -0.002422 0
v -0.00077 -0.003736 0.001
v -0.0015 -0.002422 0.001
v -0.000069 -0.003994 0.001
v -0.00143 -0.001972 0
v -0.00143 -0.001972 0.001
v -0.001497 -0.002326 0.001
v -0.001284 -0.001659 0
v -0.001284 -0.001659 0.001
v -0.001497 -0.002326 0
v -0.0015 -0.002422 0.001
v -0.0015 -0.002422 0
v 0.002404 0.004229 0
v 0.002404 0.004229 0.001
v -0.001284 -0.001659 0.001
v -0.001284 -0.001659 0
v 0.002438 0.004291 0.001
v 0.002438 0.004291 0
v 0.002508 0.004471 0
v 0.002404 0.004229 0.001
v 0.002404 0.004229 0
v 0.002508 0.004471 0.001
v 0.002524 0.0046 0
v 0.002524 0.0046 0.001
v 0.002315 0.004943 0
v 0.002315 0.004943 0.001
v 0.002389 0.0049 0.001
v 0.002389 0.0049 0
v 0.002445 0.004848 0.001
v 0.002445 0.004848 0
v 0.002487 0.004781 0.001
v 0.002487 0.004781 0
v 0.002513 0.004704 0.001
v 0.002197 0.00498 0
v 0.002197 0.00498 0.001
v 0.001986 0.004999 0
v 0.002513 0.004704 0
v 0.002524 0.0046 0.001
v 0.002524 0.0046 0
v 0.001986 0.004999 0.001
v 0.001986 0.004999 0.001
v 0.001986 0.004999 0
v -0.001995 0.004999 0
v -0.001995 0.004999 0.001
v -0.001995 0.004999 0.001
v -0.001995 0.004999 0
v -0.002167 0.004981 0
v -0.002167 0.004981 0.001
v -0.002264 0.004948 0
v -0.002264 0.004948 0.001
v -0.00234 0.0049 0
v -0.00234 0.0049 0.001
v -0.002393 0.004848 0
v -0.00244 0.004772 0
v -0.00244 0.004772 0.001
v -0.002476 0.004668 0.001
v -0.002476 0.004668 0
v -0.002493 0.004503 0
v -0.002493 0.004503 0.001
v -0.002393 0.004848 0.001
v -0.002493 0.004503 0.001
v -0.002493 0.004503 0
v -0.002478 0.004349 0
v -0.002478 0.004349 0.001
v -0.002447 0.004248 0
v -0.002447 0.004248 0.001
v -0.002402 0.004169 0
v -0.002402 0.004169 0.001
v -0.002341 0.004106 0
v -0.002341 0.004106 0.001
v -0.002265 0.004059 0
v -0.002265 0.004059 0.001
v -0.00216 0.004023 0
v -0.001994 0.004006 0
v -0.001994 0.004006 0.001
v -0.00216 0.004023 0.001
v 0.001092 0.004006 0
v 0.001092 0.004006 0.001
v -0.001994 0.004006 0.001
v -0.001994 0.004006 0
v 0.001092 0.004006 0.001
v 0.001092 0.004006 0
v -0.002154 -0.001143 0
v -0.002154 -0.001143 0.001
v -0.002154 -0.001143 0.001
v -0.002154 -0.001143 0
v -0.002224 -0.001271 0
v -0.002224 -0.001271 0.001
v -0.002425 -0.001814 0
v -0.002425 -0.001814 0.001
v -0.002493 -0.002392 0
v -0.002493 -0.002392 0.001
vn 0 0 1
vn 0 0 1
vn 0 0 1
vn 0 0 1
vn 0 0 1
vn 0 0 1
vn 0 0 1
vn 0 0 1
vn 0 0 1
vn 0 0 1
vn 0 0 1
vn 0 0 1
vn 0 0 1
vn 0 0 1
vn 0 0 1
vn 0 0 1
vn 0 0 1
vn 0 0 1
vn 0 0 1
vn 0 0 1
vn 0 0 1
vn 0 0 1
vn 0 0 1
vn 0 0 1
vn 0 0 1
vn 0 0 1
vn 0 0 1
vn 0 0 1
vn 0 0 1
vn 0 0 1
vn 0 0 1
vn 0 0 1
vn 0 0 1
vn 0 0 1
vn 0 0 1
vn 0 0 1
vn 0 0 1
vn 0 0 1
vn 0 0 1
vn 0 0 1
vn 0 0 1
vn 0 0 1
vn 0 0 1
vn 0 0 1
vn 0 0 1
vn 0 0 1
vn 0 0 1
vn 0 0 1
vn 0 0 1
vn 0 0 1
vn 0 0 1
vn 0 0 1
vn 0 0 1
vn 0 0 1
vn 0 0 1
vn 0 0 1
vn 0 0 1
vn 0 0 1
vn 0 0 1
vn 0 0 1
vn 0 0 1
vn 0 0 1
vn 0 0 1
vn 0 0 1
vn 0 0 1
vn 0 0 1
vn 0 0 1
vn 0 0 1
vn 0 0 1
vn 0 0 1
vn 0 0 1
vn 0 0 1
vn 0 0 1
vn 0 0 1
vn 0 0 -1
vn 0 0 -1
vn 0 0 -1
vn 0 0 -1
vn 0 0 -1
vn 0 0 -1
vn 0 0 -1
vn 0 0 -1
vn 0 0 -1
vn 0 0 -1
vn 0 0 -1
vn 0 0 -1
vn 0 0 -1
vn 0 0 -1
vn 0 0 -1
vn 0 0 -1
vn 0 0 -1
vn 0 0 -1
vn 0 0 -1
vn 0 0 -1
vn 0 0 -1
vn 0 0 -1
vn 0 0 -1
vn 0 0 -1
vn 0 0 -1
vn 0 0 -1
vn 0 0 -1
vn 0 0 -1
vn 0 0 -1
vn 0 0 -1
vn 0 0 -1
vn 0 0 -1
vn 0 0 -1
vn 0 0 -1
vn 0 0 -1
vn 0 0 -1
vn 0 0 -1
vn 0 0 -1
vn 0 0 -1
vn 0 0 -1
vn 0 0 -1
vn 0 0 -1
vn 0 0 -1
vn 0 0 -1
vn 0 0 -1
vn 0 0 -1
vn 0 0 -1
vn 0 0 -1
vn 0 0 -1
vn 0 0 -1
vn 0 0 -1
vn 0 0 -1
vn 0 0 -1
vn 0 0 -1
vn 0 0 -1
vn 0 0 -1
vn 0 0 -1
vn 0 0 -1
vn 0 0 -1
vn 0 0 -1
vn 0 0 -1
vn 0 0 -1
vn 0 0 -1
vn 0 0 -1
vn 0 0 -1
vn 0 0 -1
vn 0 0 -1
vn 0 0 -1
vn 0 0 -1
vn 0 0 -1
vn 0 0 -1
vn 0 0 -1
vn 0 0 -1
vn 0 0 -1
vn -0.928929 -0.370256 0
vn -0.928929 -0.370256 0
vn -0.992571 -0.121662 0
vn -0.452436 -0.891796 0
vn -0.452436 -0.891796 0
vn -0.231531 -0.972827 0
vn -0.649923 -0.759999 0
vn -0.649923 -0.759999 0
vn -0.992571 -0.121662 0
vn -1 0 0
vn -1 0 0
vn -0.817479 -0.575957 0
vn -0.817479 -0.575957 0
vn -0.231531 -0.972827 0
vn 0 -1 0
vn 0 -1 0
vn 0.033435 -0.99944 0
vn 0.033435 -0.99944 0
vn 0 -1 0
vn 0.837184 -0.54692 0
vn 0.837184 -0.54692 0
vn 0.689571 -0.724217 0
vn 0.689571 -0.724217 0
vn 0.502158 -0.864775 0
vn 0.502158 -0.864775 0
vn 0.269179 -0.963089 0
vn 0.269179 -0.963089 0
vn 0 -1 0
vn 1 0 0
vn 1 0 0
vn 0.972426 -0.23321 0
vn 0.972426 -0.23321 0
vn 0.88666 -0.462421 0
vn 0.88666 -0.462421 0
vn 0.822627 -0.56858 0
vn 0.822627 -0.56858 0
vn 0.232174 0.972674 0
vn 0.232174 0.972674 0
vn 0 1 0
vn 0.474114 0.880463 0
vn 0.474114 0.880463 0
vn 0.662633 0.748944 0
vn 0.662633 0.748944 0
vn 0.69375 0.720215 0
vn 0.69375 0.720215 0
vn 0.943941 0.330112 0
vn 0.943941 0.330112 0
vn 0.840981 0.541063 0
vn 0.996114 0.088068 0
vn 0.996114 0.088068 0
vn 1 0 0
vn 1 0 0
vn 0.840981 0.541063 0
vn 0 1 0
vn -0.693971 0.720002 0
vn -0.693971 0.720002 0
vn -0.508452 0.861089 0
vn -0.839411 0.543496 0
vn -0.508452 0.861089 0
vn -0.29311 0.956078 0
vn -0.29311 0.956078 0
vn -0.839411 0.543496 0
vn -0.061925 0.99808 0
vn -0.061925 0.99808 0
vn 0 1 0
vn 0 1 0
vn -0.841015 0.541011 0
vn -0.841015 0.541011 0
vn -0.808469 0.588537 0
vn -0.808469 0.588537 0
vn -0.657704 0.753275 0
vn -0.657704 0.753275 0
vn -0.44995 0.893053 0
vn -0.44995 0.893053 0
vn -0.2296 0.973284 0
vn -0.2296 0.973284 0
vn 0 1 0
vn 0 1 0
vn 0.35051 0.936558 0
vn 0.35051 0.936558 0
vn 0.55962 0.828748 0
vn 0 1 0
vn 0 1 0
vn 0.116602 0.993178 0
vn 0.751676 0.659532 0
vn 0.751676 0.659532 0
vn 0.881527 0.472132 0
vn 0.881527 0.472132 0
vn 0.972624 0.232382 0
vn 0.972624 0.232382 0
vn 1 0 0
vn 0.55962 0.828748 0
vn 1 0 0
vn 0.116602 0.993178 0
vn 0.95092 -0.309436 0
vn 0.95092 -0.309436 0
vn 0.99808 -0.061938 0
vn 0.852791 -0.522251 0
vn 0.852791 -0.522251 0
vn 0.99808 -0.061938 0
vn 1 0 0
vn 1 0 0
vn 0.84746 -0.530857 0
vn 0.84746 -0.530857 0
vn 0.84746 -0.530857 0
vn 0.84746 -0.530857 0
vn 0.887834 -0.460163 0
vn 0.887834 -0.460163 0
vn 0.971694 -0.236241 0
vn 0.857492 -0.514495 0
vn 0.857492 -0.514495 0
vn 0.971694 -0.236241 0
vn 1 0 0
vn 1 0 0
vn 0.410232 0.91198 0
vn 0.410232 0.91198 0
vn 0.59681 0.802382 0
vn 0.59681 0.802382 0
vn 0.76705 0.641586 0
vn 0.76705 0.641586 0
vn 0.90386 0.427826 0
vn 0.90386 0.427826 0
vn 0.976832 0.214002 0
vn 0.204972 0.978767 0
vn 0.204972 0.978767 0
vn 0 1 0
vn 0.976832 0.214002 0
vn 1 0 0
vn 1 0 0
vn 0 1 0
vn 0 1 0
vn 0 1 0
vn 0 1 0
vn 0 1 0
vn 0 1 0
vn 0 1 0
vn -0.229939 0.973204 0
vn -0.229939 0.973204 0
vn -0.429397 0.903115 0
vn -0.429397 0.903115 0
vn -0.627832 0.778348 0
vn -0.627832 0.778348 0
vn -0.776665 0.629913 0
vn -0.901576 0.432619 0
vn -0.901576 0.432619 0
vn -0.97584 0.218485 0
vn -0.97584 0.218485 0
vn -1 0 0
vn -1 0 0
vn -0.776665 0.629913 0
vn -1 0 0
vn -1 0 0
vn -0.979791 -0.200023 0
vn -0.979791 -0.200023 0
vn -0.916997 -0.398892 0
vn -0.916997 -0.398892 0
vn -0.80053 -0.599291 0
vn -0.80053 -0.599291 0
vn -0.629592 -0.776925 0
vn -0.629592 -0.776925 0
vn -0.432298 -0.90173 0
vn -0.432298 -0.90173 0
vn -0.218288 -0.975884 0
vn 0 -1 0
vn 0 -1 0
vn -0.218288 -0.975884 0
vn 0 -1 0
vn 0 -1 0
vn 0 -1 0
vn 0 -1 0
vn -0.845934 0.533286 0
vn -0.845934 0.533286 0
vn -0.845934 0.533286 0
vn -0.845934 0.533286 0
vn -0.863234 0.504803 0
vn -0.863234 0.504803 0
vn -0.889995 0.45597 0
vn -0.889995 0.45597 0
vn -0.972503 0.232886 0
vn -0.972503 0.232886 0
vn -1 0 0
vn -1 0 0
usemtl App0
f 1//1 2//2 3//3
f 4//4 5//5 6//6
f 7//7 8//8 9//9
f 10//10 11//11 12//12
f 12//12 13//13 14//14
f 15//15 13//13 12//12
f 16//16 17//17 18//18
f 19//19 15//15 12//12
f 20//20 21//21 22//22
f 23//23 24//24 25//25
f 26//26 19//19 12//12
f 27//27 28//28 21//21
f 14//14 21//21 12//12
f 29//29 23//23 30//30
f 3//3 18//18 1//1
f 31//31 32//32 33//33
f 34//34 35//35 36//36
f 37//37 26//26 12//12
f 38//38 39//39 21//21
f 21//21 28//28 40//40
f 9//9 29//29 41//41
f 25//25 30//30 23//23
f 24//24 4//4 42//42
f 18//18 3//3 16//16
f 31//31 33//33 17//17
f 43//43 44//44 45//45
f 46//46 34//34 47//47
f 35//35 48//48 49//49
f 12//12 11//11 37//37
f 50//50 51//51 21//21
f 52//52 27//27 21//21
f 21//21 40//40 22//22
f 53//53 9//9 54//54
f 30//30 41//41 29//29
f 42//42 25//25 24//24
f 2//2 1//1 55//55
f 32//32 43//43 45//45
f 17//17 16//16 31//31
f 45//45 33//33 32//32
f 56//56 20//20 22//22
f 46//46 47//47 44//44
f 36//36 47//47 34//34
f 48//48 57//57 49//49
f 12//12 57//57 48//48
f 21//21 14//14 50//50
f 21//21 51//51 38//38
f 21//21 39//39 52//52
f 9//9 58//58 59//59
f 54//54 60//60 61//61
f 59//59 62//62 9//9
f 9//9 63//63 64//64
f 12//12 65//65 66//66
f 61//61 53//53 54//54
f 9//9 67//67 68//68
f 9//9 69//69 58//58
f 9//9 41//41 63//63
f 66//66 70//70 12//12
f 6//6 42//42 4//4
f 9//9 71//71 54//54
f 9//9 8//8 67//67
f 64//64 69//69 9//9
f 56//56 22//22 72//72
f 70//70 10//10 12//12
f 55//55 5//5 2//2
f 5//5 55//55 6//6
f 68//68 71//71 9//9
f 62//62 7//7 9//9
f 72//72 73//73 56//56
f 12//12 74//74 65//65
f 48//48 74//74 12//12
f 49//49 36//36 35//35
f 44//44 43//43 46//46
f 75//75 76//76 77//77
f 78//78 79//79 80//80
f 80//80 81//81 82//82
f 77//77 83//83 84//84
f 77//77 85//85 86//86
f 77//77 87//87 83//83
f 88//88 89//89 90//90
f 86//86 75//75 77//77
f 84//84 91//91 77//77
f 77//77 92//92 93//93
f 88//88 77//77 89//89
f 80//80 94//94 95//95
f 96//96 97//97 98//98
f 91//91 85//85 77//77
f 93//93 99//99 77//77
f 90//90 100//100 88//88
f 101//101 102//102 103//103
f 80//80 104//104 94//94
f 105//105 106//106 96//96
f 77//77 107//107 87//87
f 88//88 92//92 77//77
f 103//103 108//108 101//101
f 109//109 110//110 111//111
f 80//80 79//79 104//104
f 81//81 112//112 113//113
f 81//81 114//114 115//115
f 81//81 116//116 117//117
f 105//105 81//81 106//106
f 99//99 107//107 77//77
f 111//111 102//102 109//109
f 110//110 118//118 119//119
f 120//120 121//121 122//122
f 123//123 124//124 125//125
f 124//124 126//126 80//80
f 95//95 127//127 80//80
f 80//80 128//128 78//78
f 115//115 112//112 81//81
f 81//81 129//129 116//116
f 98//98 105//105 96//96
f 76//76 130//130 77//77
f 131//131 132//132 130//130
f 108//108 103//103 133//133
f 119//119 111//111 110//110
f 134//134 135//135 136//136
f 137//137 138//138 139//139
f 121//121 140//140 122//122
f 141//141 125//125 140//140
f 125//125 141//141 123//123
f 127//127 142//142 80//80
f 80//80 143//143 128//128
f 117//117 114//114 81//81
f 105//105 144//144 81//81
f 130//130 76//76 131//131
f 145//145 133//133 132//132
f 101//101 109//109 102//102
f 118//118 134//134 146//146
f 135//135 139//139 136//136
f 139//139 135//135 137//137
f 140//140 121//121 141//141
f 80//80 142//142 124//124
f 80//80 147//147 143//143
f 144//144 129//129 81//81
f 82//82 148//148 80//80
f 132//132 131//131 145//145
f 146//146 119//119 118//118
f 137//137 120//120 138//138
f 123//123 126//126 124//124
f 80//80 148//148 147//147
f 133//133 145//145 108//108
f 122//122 138//138 120//120
f 113//113 82//82 81//81
f 136//136 146//146 134//134
f 149//149 150//150 151//151
f 152//152 153//153 154//154
f 155//155 156//156 153//153
f 157//157 151//151 158//158
f 158//158 159//159 157//157
f 151//151 157//157 149//149
f 150//150 149//149 160//160
f 161//161 160//160 156//156
f 154//154 162//162 152//152
f 153//153 152//152 155//155
f 156//156 155//155 161//161
f 160//160 161//161 150//150
f 162//162 154//154 163//163
f 163//163 164//164 162//162
f 165//165 166//166 167//167
f 168//168 169//169 170//170
f 171//171 170//170 172//172
f 173//173 172//172 174//174
f 175//175 174//174 166//166
f 167//167 176//176 165//165
f 166//166 165//165 175//175
f 174//174 175//175 173//173
f 172//172 173//173 171//171
f 170//170 171//171 168//168
f 177//177 178//178 179//179
f 180//180 179//179 181//181
f 182//182 181//181 183//183
f 183//183 184//184 182//182
f 181//181 182//182 180//180
f 179//179 180//180 177//177
f 185//185 186//186 187//187
f 188//188 189//189 186//186
f 190//190 191//191 189//189
f 192//192 193//193 191//191
f 194//194 195//195 196//196
f 197//197 198//198 195//195
f 199//199 200//200 198//198
f 195//195 194//194 197//197
f 196//196 201//201 194//194
f 193//193 192//192 201//201
f 189//189 188//188 190//190
f 186//186 185//185 188//188
f 187//187 202//202 185//185
f 198//198 197//197 199//199
f 201//201 196//196 193//193
f 191//191 190//190 192//192
f 203//203 204//204 205//205
f 204//204 203//203 206//206
f 205//205 207//207 203//203
f 208//208 209//209 207//207
f 206//206 210//210 204//204
f 211//211 212//212 209//209
f 213//213 214//214 212//212
f 212//212 211//211 213//213
f 209//209 208//208 211//211
f 207//207 205//205 208//208
f 215//215 216//216 217//217
f 218//218 217//217 219//219
f 220//220 219//219 221//221
f 222//222 221//221 223//223
f 224//224 223//223 225//225
f 225//225 226//226 224//224
f 223//223 224//224 222//222
f 221//221 222//222 220//220
f 219//219 220//220 218//218
f 217//217 218//218 215//215
f 227//227 228//228 229//229
f 230//230 231//231 232//232
f 233//233 234//234 235//235
f 236//236 235//235 237//237
f 238//238 237//237 239//239
f 235//235 236//236 233//233
f 234//234 233//233 240//240
f 239//239 241//241 238//238
f 228//228 227//227 242//242
f 232//232 242//242 230//230
f 229//229 240//240 227//227
f 242//242 232//232 228//228
f 237//237 238//238 236//236
f 240//240 229//229 234//234
f 243//243 244//244 245//245
f 246//246 247//247 244//244
f 248//248 245//245 249//249
f 249//249 250//250 248//248
f 245//245 248//248 243//243
f 244//244 243//243 246//246
f 251//251 252//252 253//253
f 253//253 254//254 251//251
f 255//255 256//256 257//257
f 258//258 259//259 256//256
f 257//257 260//260 255//255
f 256//256 255//255 258//258
f 261//261 262//262 260//260
f 260//260 257//257 261//261
f 263//263 264//264 265//265
f 266//266 265//265 267//267
f 268//268 267//267 269//269
f 270//270 269//269 271//271
f 272//272 273//273 264//264
f 273//273 272//272 274//274
f 264//264 263//263 272//272
f 265//265 266//266 263//263
f 267//267 268//268 266//266
f 269//269 270//270 268//268
f 271//271 275//275 270//270
f 276//276 277//277 275//275
f 275//275 271//271 276//276
f 274//274 278//278 273//273
f 279//279 280//280 281//281
f 281//281 282//282 279//279
f 283//283 284//284 285//285
f 286//286 285//285 287//287
f 288//288 287//287 289//289
f 290//290 289//289 291//291
f 291//291 292//292 293//293
f 294//294 295//295 296//296
f 294//294 293//293 292//292
f 292//292 295//295 294//294
f 296//296 297//297 294//294
f 293//293 298//298 291//291
f 291//291 298//298 290//290
f 289//289 290//290 288//288
f 287//287 288//288 286//286
f 285//285 286//286 283//283
f 299//299 300//300 301//301
f 301//301 302//302 299//299
f 302//302 301//301 303//303
f 304//304 303//303 305//305
f 306//306 305//305 307//307
f 308//308 307//307 309//309
f 310//310 309//309 311//311
f 303//303 304//304 302//302
f 312//312 313//313 314//314
f 311//311 314//314 310//310
f 309//309 310//310 308//308
f 307//307 308//308 306//306
f 305//305 306//306 304//304
f 314//314 311//311 312//312
f 315//315 316//316 317//317
f 317//317 318//318 315//315
f 319//319 320//320 321//321
f 321//321 322//322 319//319
f 323//323 324//324 325//325
f 325//325 326//326 323//323
f 327//327 328//328 326//326
f 329//329 330//330 328//328
f 326//326 325//325 327//327
f 328//328 327//327 329//329
