#OBJ
#T-FLEX CAD ObjGenerator generate date:5.10.2020 22:14:13
mtllib materials.mtl
v 0.001832 0.002003 0.001
v 0.00293 0.00284 0.001
v 0.002876 0.002894 0.001
v -0.000564 0.000228 0.001
v -0.000528 0.000333 0.001
v -0.000754 0.000046 0.001
v -0.001277 0.000052 0.001
v -0.001172 0.000017 0.001
v -0.000512 0.000501 0.001
v 0.000913 -0.004774 0.001
v 0.000967 -0.004639 0.001
v 0.328875E-5 -0.004397 0.001
v -0.002509 0.002003 0.001
v -0.001505 0.002003 0.001
v -0.001505 0.002996 0.001
v 0.002487 0.002996 0.001
v -0.000512 0.002996 0.001
v 0.002971 0.002772 0.001
v -0.000512 0.002003 0.001
v -0.001505 0.004499 0.001
v 0.000013 -0.00436 0.001
v -0.001488 0.004666 0.001
v -0.001262 0.004954 0.001
v 0.002966 0.002356 0.001
v 0.00299 0.002445 0.001
v 0.000325 -0.004982 0.001
v 0.000507 -0.004999 0.001
v 0.428477E-7 -0.004658 0.001
v -0.001008 0.544425E-6 0.001
v -0.001505 0.000501 0.001
v 0.002684 0.002977 0.001
v -0.000844 0.004983 0.001
v -0.001008 0.004999 0.001
v -0.000512 0.004499 0.001
v -0.002678 0.00202 0.001
v -0.002966 0.002246 0.001
v 0.003006 0.002586 0.001
v -0.000012 -0.00452 0.001
v 0.00059 -0.004994 0.001
v -0.001487 0.000329 0.001
v -0.000855 0.000014 0.001
v 0.002798 0.002941 0.001
v -0.00053 0.004671 0.001
v -0.001161 0.004985 0.001
v -0.002995 0.002663 0.001
v -0.003012 0.002499 0.001
v -0.002509 0.002996 0.001
v 0.002997 0.002691 0.001
v 0.000214 -0.004944 0.001
v 0.00003 -0.004756 0.001
v 0.000853 -0.004861 0.001
v -0.001453 0.00023 0.001
v 0.000693 -0.00497 0.001
v -0.000563 0.004769 0.001
v -0.002681 0.002978 0.001
v -0.002998 0.002347 0.001
v -0.002912 0.002843 0.001
v -0.00296 0.002768 0.001
v -0.002784 0.002056 0.001
v -0.002921 0.002167 0.001
v -0.002857 0.002898 0.001
v -0.00286 0.002104 0.001
v -0.00278 0.002945 0.001
v -0.001452 0.004772 0.001
v -0.001341 0.004909 0.001
v -0.000664 0.0049 0.001
v -0.00074 0.004947 0.001
v -0.00061 0.004846 0.001
v -0.000675 0.000091 0.001
v -0.001352 0.0001 0.001
v -0.001406 0.000154 0.001
v 0.00078 -0.004925 0.001
v 0.000075 -0.004833 0.001
v 0.000136 -0.004896 0.001
v -0.001404 0.004848 0.001
v -0.000612 0.000152 0.001
v 0.001832 0.002003 0
v 0.002966 0.002356 0
v 0.000967 -0.004639 0
v -0.002681 0.002978 0
v -0.002509 0.002996 0
v -0.002509 0.002003 0
v -0.001487 0.000329 0
v -0.001505 0.000501 0
v -0.000512 0.000501 0
v -0.002995 0.002663 0
v -0.00296 0.002768 0
v -0.002912 0.002843 0
v -0.002784 0.002056 0
v -0.00286 0.002104 0
v -0.002921 0.002167 0
v -0.002857 0.002898 0
v -0.002966 0.002246 0
v -0.002678 0.00202 0
v -0.001352 0.0001 0
v -0.001406 0.000154 0
v -0.001172 0.000017 0
v -0.001277 0.000052 0
v -0.000564 0.000228 0
v -0.000612 0.000152 0
v -0.000675 0.000091 0
v -0.001505 0.004499 0
v -0.000664 0.0049 0
v -0.00061 0.004846 0
v -0.000844 0.004983 0
v -0.00074 0.004947 0
v -0.001452 0.004772 0
v -0.001404 0.004848 0
v -0.001341 0.004909 0
v -0.003012 0.002499 0
v -0.000754 0.000046 0
v -0.000528 0.000333 0
v -0.001262 0.004954 0
v -0.001488 0.004666 0
v 0.00003 -0.004756 0
v 0.000214 -0.004944 0
v 0.000136 -0.004896 0
v 0.328875E-5 -0.004397 0
v 0.000853 -0.004861 0
v 0.00078 -0.004925 0
v -0.00278 0.002945 0
v -0.001008 0.544425E-6 0
v 0.002798 0.002941 0
v 0.002876 0.002894 0
v -0.001008 0.004999 0
v 0.000325 -0.004982 0
v 0.000913 -0.004774 0
v -0.002998 0.002347 0
v -0.001453 0.00023 0
v 0.002684 0.002977 0
v -0.000563 0.004769 0
v 0.00293 0.00284 0
v 0.002971 0.002772 0
v 0.000075 -0.004833 0
v 0.000693 -0.00497 0
v -0.001505 0.002003 0
v -0.000855 0.000014 0
v 0.002487 0.002996 0
v -0.000512 0.002996 0
v -0.00053 0.004671 0
v -0.001161 0.004985 0
v 0.002997 0.002691 0
v 0.000507 -0.004999 0
v 0.428477E-7 -0.004658 0
v -0.000012 -0.00452 0
v -0.001505 0.002996 0
v -0.000512 0.002003 0
v -0.000512 0.004499 0
v 0.003006 0.002586 0
v 0.00059 -0.004994 0
v 0.000013 -0.00436 0
v 0.00299 0.002445 0
v -0.001277 0.000052 0.001
v -0.001277 0.000052 0
v -0.001172 0.000017 0
v -0.001352 0.0001 0.001
v -0.001352 0.0001 0
v -0.001008 0.544425E-6 0
v -0.001008 0.544425E-6 0.001
v -0.001172 0.000017 0.001
v -0.001406 0.000154 0.001
v -0.001406 0.000154 0
v -0.001453 0.00023 0.001
v -0.001453 0.00023 0
v -0.001487 0.000329 0.001
v -0.001487 0.000329 0
v -0.001505 0.000501 0.001
v -0.001505 0.000501 0
v -0.000528 0.000333 0
v -0.000528 0.000333 0.001
v -0.000564 0.000228 0.001
v -0.000564 0.000228 0
v -0.000612 0.000152 0.001
v -0.000612 0.000152 0
v -0.000675 0.000091 0.001
v -0.000675 0.000091 0
v -0.000754 0.000046 0.001
v -0.000855 0.000014 0
v -0.000855 0.000014 0.001
v -0.001008 0.544425E-6 0.001
v -0.000754 0.000046 0
v -0.000512 0.000501 0
v -0.001008 0.544425E-6 0
v -0.000512 0.000501 0.001
v -0.000512 0.002003 0
v -0.000512 0.002003 0.001
v -0.000512 0.000501 0.001
v -0.000512 0.000501 0
v 0.001832 0.002003 0
v 0.001832 0.002003 0.001
v -0.000512 0.002003 0.001
v -0.000512 0.002003 0
v 0.000013 -0.00436 0
v 0.000013 -0.00436 0.001
v 0.001832 0.002003 0.001
v 0.001832 0.002003 0
v -0.000012 -0.00452 0
v -0.000012 -0.00452 0.001
v 0.328875E-5 -0.004397 0.001
v 0.328875E-5 -0.004397 0
v 0.000013 -0.00436 0.001
v 0.000013 -0.00436 0
v 0.000214 -0.004944 0.001
v 0.000214 -0.004944 0
v 0.000325 -0.004982 0
v 0.000136 -0.004896 0.001
v 0.000136 -0.004896 0
v 0.00003 -0.004756 0.001
v 0.00003 -0.004756 0
v 0.000075 -0.004833 0
v 0.428477E-7 -0.004658 0.001
v 0.428477E-7 -0.004658 0
v -0.000012 -0.00452 0.001
v -0.000012 -0.00452 0
v 0.000075 -0.004833 0.001
v 0.000325 -0.004982 0.001
v 0.000507 -0.004999 0
v 0.000507 -0.004999 0.001
v 0.00059 -0.004994 0.001
v 0.00059 -0.004994 0
v 0.000693 -0.00497 0
v 0.000693 -0.00497 0.001
v 0.00078 -0.004925 0
v 0.00078 -0.004925 0.001
v 0.000853 -0.004861 0
v 0.000853 -0.004861 0.001
v 0.000913 -0.004774 0
v 0.000967 -0.004639 0
v 0.000967 -0.004639 0.001
v 0.000913 -0.004774 0.001
v 0.000507 -0.004999 0.001
v 0.000507 -0.004999 0
v 0.002966 0.002356 0
v 0.002966 0.002356 0.001
v 0.000967 -0.004639 0.001
v 0.000967 -0.004639 0
v 0.003006 0.002586 0
v 0.003006 0.002586 0.001
v 0.00299 0.002445 0.001
v 0.00299 0.002445 0
v 0.002966 0.002356 0.001
v 0.002966 0.002356 0
v 0.002487 0.002996 0
v 0.002487 0.002996 0.001
v 0.002684 0.002977 0.001
v 0.002684 0.002977 0
v 0.002798 0.002941 0.001
v 0.002798 0.002941 0
v 0.002876 0.002894 0.001
v 0.002876 0.002894 0
v 0.00293 0.00284 0.001
v 0.00293 0.00284 0
v 0.002971 0.002772 0.001
v 0.002997 0.002691 0
v 0.002997 0.002691 0.001
v 0.003006 0.002586 0.001
v 0.002971 0.002772 0
v 0.003006 0.002586 0
v -0.000512 0.002996 0
v -0.000512 0.002996 0.001
v 0.002487 0.002996 0.001
v 0.002487 0.002996 0
v -0.000512 0.004499 0
v -0.000512 0.004499 0.001
v -0.000512 0.002996 0.001
v -0.000512 0.002996 0
v -0.001008 0.004999 0
v -0.001008 0.004999 0.001
v -0.000844 0.004983 0.001
v -0.000844 0.004983 0
v -0.00074 0.004947 0.001
v -0.00074 0.004947 0
v -0.000664 0.0049 0.001
v -0.000664 0.0049 0
v -0.00061 0.004846 0.001
v -0.00061 0.004846 0
v -0.000563 0.004769 0.001
v -0.000563 0.004769 0
v -0.00053 0.004671 0.001
v -0.00053 0.004671 0
v -0.000512 0.004499 0.001
v -0.000512 0.004499 0
v -0.001262 0.004954 0
v -0.001262 0.004954 0.001
v -0.001161 0.004985 0.001
v -0.001161 0.004985 0
v -0.001008 0.004999 0.001
v -0.001008 0.004999 0
v -0.001341 0.004909 0
v -0.001404 0.004848 0.001
v -0.001404 0.004848 0
v -0.001452 0.004772 0
v -0.001488 0.004666 0.001
v -0.001488 0.004666 0
v -0.001505 0.004499 0
v -0.001452 0.004772 0.001
v -0.001505 0.004499 0.001
v -0.001341 0.004909 0.001
v -0.001505 0.002996 0
v -0.001505 0.002996 0.001
v -0.001505 0.004499 0.001
v -0.001505 0.004499 0
v -0.002509 0.002996 0
v -0.002509 0.002996 0.001
v -0.001505 0.002996 0.001
v -0.001505 0.002996 0
v -0.002681 0.002978 0
v -0.002681 0.002978 0.001
v -0.002509 0.002996 0.001
v -0.00278 0.002945 0
v -0.00296 0.002768 0
v -0.002995 0.002663 0
v -0.002995 0.002663 0.001
v -0.002912 0.002843 0.001
v -0.002912 0.002843 0
v -0.002509 0.002996 0
v -0.003012 0.002499 0
v -0.00278 0.002945 0.001
v -0.002857 0.002898 0
v -0.002857 0.002898 0.001
v -0.003012 0.002499 0.001
v -0.00296 0.002768 0.001
v -0.002509 0.002003 0
v -0.002509 0.002003 0.001
v -0.002678 0.00202 0.001
v -0.002678 0.00202 0
v -0.002784 0.002056 0.001
v -0.002784 0.002056 0
v -0.00286 0.002104 0.001
v -0.002921 0.002167 0.001
v -0.002921 0.002167 0
v -0.002966 0.002246 0.001
v -0.00286 0.002104 0
v -0.002966 0.002246 0
v -0.002998 0.002347 0.001
v -0.003012 0.002499 0.001
v -0.003012 0.002499 0
v -0.002998 0.002347 0
v -0.001505 0.002003 0
v -0.001505 0.002003 0.001
v -0.002509 0.002003 0.001
v -0.002509 0.002003 0
v -0.001505 0.002003 0.001
v -0.001505 0.002003 0
v -0.001505 0.000501 0
v -0.001505 0.000501 0.001
vn 0 0 1
vn 0 0 1
vn 0 0 1
vn 0 0 1
vn 0 0 1
vn 0 0 1
vn 0 0 1
vn 0 0 1
vn 0 0 1
vn 0 0 1
vn 0 0 1
vn 0 0 1
vn 0 0 1
vn 0 0 1
vn 0 0 1
vn 0 0 1
vn 0 0 1
vn 0 0 1
vn 0 0 1
vn 0 0 1
vn 0 0 1
vn 0 0 1
vn 0 0 1
vn 0 0 1
vn 0 0 1
vn 0 0 1
vn 0 0 1
vn 0 0 1
vn 0 0 1
vn 0 0 1
vn 0 0 1
vn 0 0 1
vn 0 0 1
vn 0 0 1
vn 0 0 1
vn 0 0 1
vn 0 0 1
vn 0 0 1
vn 0 0 1
vn 0 0 1
vn 0 0 1
vn 0 0 1
vn 0 0 1
vn 0 0 1
vn 0 0 1
vn 0 0 1
vn 0 0 1
vn 0 0 1
vn 0 0 1
vn 0 0 1
vn 0 0 1
vn 0 0 1
vn 0 0 1
vn 0 0 1
vn 0 0 1
vn 0 0 1
vn 0 0 1
vn 0 0 1
vn 0 0 1
vn 0 0 1
vn 0 0 1
vn 0 0 1
vn 0 0 1
vn 0 0 1
vn 0 0 1
vn 0 0 1
vn 0 0 1
vn 0 0 1
vn 0 0 1
vn 0 0 1
vn 0 0 1
vn 0 0 1
vn 0 0 1
vn 0 0 1
vn 0 0 1
vn 0 0 1
vn 0 0 -1
vn 0 0 -1
vn 0 0 -1
vn 0 0 -1
vn 0 0 -1
vn 0 0 -1
vn 0 0 -1
vn 0 0 -1
vn 0 0 -1
vn 0 0 -1
vn 0 0 -1
vn 0 0 -1
vn 0 0 -1
vn 0 0 -1
vn 0 0 -1
vn 0 0 -1
vn 0 0 -1
vn 0 0 -1
vn 0 0 -1
vn 0 0 -1
vn 0 0 -1
vn 0 0 -1
vn 0 0 -1
vn 0 0 -1
vn 0 0 -1
vn 0 0 -1
vn 0 0 -1
vn 0 0 -1
vn 0 0 -1
vn 0 0 -1
vn 0 0 -1
vn 0 0 -1
vn 0 0 -1
vn 0 0 -1
vn 0 0 -1
vn 0 0 -1
vn 0 0 -1
vn 0 0 -1
vn 0 0 -1
vn 0 0 -1
vn 0 0 -1
vn 0 0 -1
vn 0 0 -1
vn 0 0 -1
vn 0 0 -1
vn 0 0 -1
vn 0 0 -1
vn 0 0 -1
vn 0 0 -1
vn 0 0 -1
vn 0 0 -1
vn 0 0 -1
vn 0 0 -1
vn 0 0 -1
vn 0 0 -1
vn 0 0 -1
vn 0 0 -1
vn 0 0 -1
vn 0 0 -1
vn 0 0 -1
vn 0 0 -1
vn 0 0 -1
vn 0 0 -1
vn 0 0 -1
vn 0 0 -1
vn 0 0 -1
vn 0 0 -1
vn 0 0 -1
vn 0 0 -1
vn 0 0 -1
vn 0 0 -1
vn 0 0 -1
vn 0 0 -1
vn 0 0 -1
vn 0 0 -1
vn 0 0 -1
vn -0.432907 -0.901438 0
vn -0.432907 -0.901438 0
vn -0.218661 -0.9758 0
vn -0.6302 -0.776432 0
vn -0.6302 -0.776432 0
vn 0 -1 0
vn 0 -1 0
vn -0.218661 -0.9758 0
vn -0.78145 -0.623967 0
vn -0.78145 -0.623967 0
vn -0.904943 -0.425531 0
vn -0.904943 -0.425531 0
vn -0.974029 -0.226423 0
vn -0.974029 -0.226423 0
vn -1 0 0
vn -1 0 0
vn 0.97592 -0.218126 0
vn 0.97592 -0.218126 0
vn 0.901857 -0.432033 0
vn 0.901857 -0.432033 0
vn 0.77714 -0.629327 0
vn 0.77714 -0.629327 0
vn 0.599618 -0.800286 0
vn 0.599618 -0.800286 0
vn 0.398984 -0.916957 0
vn 0.199889 -0.979818 0
vn 0.199889 -0.979818 0
vn 0 -1 0
vn 0.398984 -0.916957 0
vn 1 0 0
vn 0 -1 0
vn 1 0 0
vn 1 0 0
vn 1 0 0
vn 1 0 0
vn 1 0 0
vn 0 -1 0
vn 0 -1 0
vn 0 -1 0
vn 0 -1 0
vn -0.961523 0.274721 0
vn -0.961523 0.274721 0
vn -0.961523 0.274721 0
vn -0.961523 0.274721 0
vn -1 0 0
vn -1 0 0
vn -0.96826 0.249944 0
vn -0.96826 0.249944 0
vn -0.948683 0.316227 0
vn -0.948683 0.316227 0
vn -0.427722 -0.903909 0
vn -0.427722 -0.903909 0
vn -0.2155 -0.976503 0
vn -0.624999 -0.780624 0
vn -0.624999 -0.780624 0
vn -0.916642 -0.399707 0
vn -0.916642 -0.399707 0
vn -0.797048 -0.603914 0
vn -0.980358 -0.197225 0
vn -0.980358 -0.197225 0
vn -1 0 0
vn -1 0 0
vn -0.797048 -0.603914 0
vn -0.2155 -0.976503 0
vn 0 -1 0
vn 0 -1 0
vn 0.131094 -0.991369 0
vn 0.131094 -0.991369 0
vn 0.342783 -0.939414 0
vn 0.342783 -0.939414 0
vn 0.560294 -0.828293 0
vn 0.560294 -0.828293 0
vn 0.746817 -0.665029 0
vn 0.746817 -0.665029 0
vn 0.879457 -0.475977 0
vn 0.963767 -0.266744 0
vn 0.963767 -0.266744 0
vn 0.879457 -0.475977 0
vn 0 -1 0
vn 0 -1 0
vn 0.961492 -0.274829 0
vn 0.961492 -0.274829 0
vn 0.961492 -0.274829 0
vn 0.961492 -0.274829 0
vn 1 0 0
vn 1 0 0
vn 0.977355 -0.211603 0
vn 0.977355 -0.211603 0
vn 0.955822 -0.293945 0
vn 0.955822 -0.293945 0
vn 0 1 0
vn 0 1 0
vn 0.208275 0.97807 0
vn 0.208275 0.97807 0
vn 0.415746 0.90948 0
vn 0.415746 0.90948 0
vn 0.61891 0.785461 0
vn 0.61891 0.785461 0
vn 0.78499 0.619507 0
vn 0.78499 0.619507 0
vn 0.912938 0.408098 0
vn 0.980234 0.197839 0
vn 0.980234 0.197839 0
vn 1 0 0
vn 0.912938 0.408098 0
vn 1 0 0
vn 0 1 0
vn 0 1 0
vn 0 1 0
vn 0 1 0
vn 1 0 0
vn 1 0 0
vn 1 0 0
vn 1 0 0
vn 0 1 0
vn 0 1 0
vn 0.218679 0.975796 0
vn 0.218679 0.975796 0
vn 0.432935 0.901424 0
vn 0.432935 0.901424 0
vn 0.630228 0.776409 0
vn 0.630228 0.776409 0
vn 0.781757 0.623582 0
vn 0.781757 0.623582 0
vn 0.905124 0.425146 0
vn 0.905124 0.425146 0
vn 0.97411 0.226073 0
vn 0.97411 0.226073 0
vn 1 0 0
vn 1 0 0
vn -0.398994 0.916953 0
vn -0.398994 0.916953 0
vn -0.199874 0.979821 0
vn -0.199874 0.979821 0
vn 0 1 0
vn 0 1 0
vn -0.599654 0.800259 0
vn -0.777164 0.629297 0
vn -0.777164 0.629297 0
vn -0.901871 0.432003 0
vn -0.975924 0.218108 0
vn -0.975924 0.218108 0
vn -1 0 0
vn -0.901871 0.432003 0
vn -1 0 0
vn -0.599654 0.800259 0
vn -1 0 0
vn -1 0 0
vn -1 0 0
vn -1 0 0
vn 0 1 0
vn 0 1 0
vn 0 1 0
vn 0 1 0
vn -0.224325 0.974514 0
vn -0.224325 0.974514 0
vn 0 1 0
vn -0.423224 0.906024 0
vn -0.901356 0.433077 0
vn -0.975777 0.218765 0
vn -0.975777 0.218765 0
vn -0.776295 0.630369 0
vn -0.776295 0.630369 0
vn 0 1 0
vn -1 0 0
vn -0.423224 0.906024 0
vn -0.621654 0.783291 0
vn -0.621654 0.783291 0
vn -1 0 0
vn -0.901356 0.433077 0
vn 0 -1 0
vn 0 -1 0
vn -0.218017 -0.975944 0
vn -0.218017 -0.975944 0
vn -0.431855 -0.901942 0
vn -0.431855 -0.901942 0
vn -0.629149 -0.777284 0
vn -0.800125 -0.599832 0
vn -0.800125 -0.599832 0
vn -0.916932 -0.399042 0
vn -0.629149 -0.777284 0
vn -0.916932 -0.399042 0
vn -0.979837 -0.199797 0
vn -1 0 0
vn -1 0 0
vn -0.979837 -0.199797 0
vn 0 -1 0
vn 0 -1 0
vn 0 -1 0
vn 0 -1 0
vn -1 0 0
vn -1 0 0
vn -1 0 0
vn -1 0 0
usemtl App0
f 1//1 2//2 3//3
f 4//4 5//5 6//6
f 7//7 8//8 9//9
f 10//10 11//11 12//12
f 13//13 14//14 15//15
f 1//1 16//16 17//17
f 18//18 2//2 1//1
f 9//9 19//19 14//14
f 20//20 15//15 17//17
f 1//1 21//21 11//11
f 11//11 21//21 12//12
f 17//17 14//14 19//19
f 22//22 20//20 23//23
f 14//14 17//17 15//15
f 11//11 24//24 1//1
f 1//1 24//24 25//25
f 26//26 27//27 28//28
f 8//8 29//29 9//9
f 14//14 30//30 9//9
f 31//31 16//16 1//1
f 32//32 33//33 20//20
f 17//17 34//34 20//20
f 35//35 13//13 36//36
f 1//1 25//25 37//37
f 38//38 28//28 27//27
f 12//12 27//27 39//39
f 9//9 30//30 40//40
f 9//9 29//29 41//41
f 42//42 31//31 1//1
f 17//17 19//19 1//1
f 20//20 34//34 43//43
f 20//20 33//33 44//44
f 45//45 46//46 13//13
f 15//15 47//47 13//13
f 1//1 37//37 48//48
f 27//27 12//12 38//38
f 49//49 26//26 50//50
f 5//5 9//9 6//6
f 51//51 10//10 12//12
f 9//9 40//40 52//52
f 12//12 39//39 53//53
f 9//9 41//41 6//6
f 3//3 42//42 1//1
f 20//20 43//43 54//54
f 20//20 44//44 23//23
f 13//13 47//47 55//55
f 13//13 46//46 56//56
f 1//1 48//48 18//18
f 26//26 28//28 50//50
f 13//13 57//57 58//58
f 59//59 36//36 60//60
f 13//13 61//61 57//57
f 60//60 62//62 59//59
f 13//13 63//63 61//61
f 64//64 23//23 65//65
f 20//20 66//66 67//67
f 20//20 54//54 68//68
f 4//4 6//6 69//69
f 9//9 70//70 7//7
f 9//9 52//52 71//71
f 12//12 53//53 72//72
f 50//50 73//73 74//74
f 59//59 35//35 36//36
f 58//58 45//45 13//13
f 65//65 75//75 64//64
f 68//68 66//66 20//20
f 69//69 76//76 4//4
f 71//71 70//70 9//9
f 72//72 51//51 12//12
f 74//74 49//49 50//50
f 13//13 56//56 36//36
f 13//13 55//55 63//63
f 64//64 22//22 23//23
f 67//67 32//32 20//20
f 77//77 78//78 79//79
f 80//80 81//81 82//82
f 83//83 84//84 85//85
f 82//82 86//86 87//87
f 87//87 88//88 82//82
f 89//89 90//90 91//91
f 88//88 92//92 82//82
f 93//93 94//94 89//89
f 85//85 95//95 96//96
f 85//85 97//97 98//98
f 99//99 100//100 101//101
f 102//102 103//103 104//104
f 102//102 105//105 106//106
f 107//107 108//108 109//109
f 82//82 110//110 86//86
f 93//93 82//82 94//94
f 98//98 95//95 85//85
f 111//111 112//112 99//99
f 106//106 103//103 102//102
f 113//113 114//114 107//107
f 115//115 116//116 117//117
f 118//118 119//119 120//120
f 92//92 121//121 82//82
f 91//91 93//93 89//89
f 85//85 122//122 97//97
f 111//111 85//85 112//112
f 77//77 123//123 124//124
f 102//102 125//125 105//105
f 113//113 102//102 114//114
f 115//115 126//126 116//116
f 118//118 127//127 119//119
f 121//121 80//80 82//82
f 93//93 128//128 82//82
f 96//96 129//129 85//85
f 101//101 111//111 99//99
f 77//77 130//130 123//123
f 104//104 131//131 102//102
f 109//109 113//113 107//107
f 77//77 132//132 133//133
f 117//117 134//134 115//115
f 120//120 135//135 118//118
f 128//128 110//110 82//82
f 136//136 82//82 81//81
f 129//129 83//83 85//85
f 111//111 137//137 85//85
f 77//77 138//138 130//130
f 139//139 138//138 77//77
f 131//131 140//140 102//102
f 113//113 141//141 102//102
f 133//133 142//142 77//77
f 143//143 144//144 145//145
f 144//144 143//143 126//126
f 118//118 79//79 127//127
f 81//81 146//146 136//136
f 137//137 122//122 85//85
f 147//147 85//85 84//84
f 77//77 147//147 139//139
f 141//141 125//125 102//102
f 146//146 102//102 148//148
f 142//142 149//149 77//77
f 115//115 144//144 126//126
f 135//135 150//150 118//118
f 146//146 147//147 136//136
f 84//84 136//136 147//147
f 147//147 146//146 139//139
f 148//148 139//139 146//146
f 79//79 151//151 77//77
f 149//149 152//152 77//77
f 150//150 143//143 118//118
f 140//140 148//148 102//102
f 152//152 78//78 77//77
f 145//145 118//118 143//143
f 124//124 132//132 77//77
f 118//118 151//151 79//79
f 153//153 154//154 155//155
f 156//156 157//157 154//154
f 158//158 159//159 160//160
f 161//161 162//162 157//157
f 163//163 164//164 162//162
f 165//165 166//166 164//164
f 167//167 168//168 166//166
f 154//154 153//153 156//156
f 155//155 160//160 153//153
f 166//166 165//165 167//167
f 164//164 163//163 165//165
f 162//162 161//161 163//163
f 157//157 156//156 161//161
f 160//160 155//155 158//158
f 169//169 170//170 171//171
f 172//172 171//171 173//173
f 174//174 173//173 175//175
f 176//176 175//175 177//177
f 178//178 179//179 180//180
f 179//179 178//178 181//181
f 177//177 181//181 176//176
f 175//175 176//176 174//174
f 173//173 174//174 172//172
f 171//171 172//172 169//169
f 170//170 169//169 182//182
f 181//181 177//177 179//179
f 180//180 183//183 178//178
f 182//182 184//184 170//170
f 185//185 186//186 187//187
f 187//187 188//188 185//185
f 189//189 190//190 191//191
f 191//191 192//192 189//189
f 193//193 194//194 195//195
f 195//195 196//196 193//193
f 197//197 198//198 199//199
f 200//200 199//199 201//201
f 201//201 202//202 200//200
f 199//199 200//200 197//197
f 203//203 204//204 205//205
f 206//206 207//207 204//204
f 208//208 209//209 210//210
f 211//211 212//212 209//209
f 213//213 214//214 212//212
f 212//212 211//211 213//213
f 209//209 208//208 211//211
f 210//210 215//215 208//208
f 216//216 205//205 217//217
f 217//217 218//218 216//216
f 215//215 210//210 207//207
f 205//205 216//216 203//203
f 204//204 203//203 206//206
f 207//207 206//206 215//215
f 219//219 220//220 221//221
f 222//222 221//221 223//223
f 224//224 223//223 225//225
f 226//226 225//225 227//227
f 227//227 228//228 229//229
f 229//229 230//230 227//227
f 227//227 230//230 226//226
f 225//225 226//226 224//224
f 223//223 224//224 222//222
f 221//221 222//222 219//219
f 220//220 219//219 231//231
f 231//231 232//232 220//220
f 233//233 234//234 235//235
f 235//235 236//236 233//233
f 237//237 238//238 239//239
f 239//239 240//240 237//237
f 241//241 242//242 240//240
f 240//240 239//239 241//241
f 243//243 244//244 245//245
f 246//246 245//245 247//247
f 248//248 247//247 249//249
f 250//250 249//249 251//251
f 252//252 251//251 253//253
f 254//254 255//255 256//256
f 255//255 254//254 257//257
f 251//251 252//252 250//250
f 249//249 250//250 248//248
f 247//247 248//248 246//246
f 253//253 257//257 252//252
f 245//245 246//246 243//243
f 257//257 253//253 255//255
f 256//256 258//258 254//254
f 259//259 260//260 261//261
f 261//261 262//262 259//259
f 263//263 264//264 265//265
f 265//265 266//266 263//263
f 267//267 268//268 269//269
f 270//270 269//269 271//271
f 269//269 270//270 267//267
f 271//271 272//272 270//270
f 273//273 274//274 272//272
f 275//275 276//276 274//274
f 277//277 278//278 276//276
f 278//278 277//277 279//279
f 280//280 279//279 281//281
f 272//272 271//271 273//273
f 276//276 275//275 277//277
f 279//279 280//280 278//278
f 281//281 282//282 280//280
f 274//274 273//273 275//275
f 283//283 284//284 285//285
f 286//286 285//285 287//287
f 287//287 288//288 286//286
f 285//285 286//286 283//283
f 284//284 283//283 289//289
f 290//290 291//291 292//292
f 293//293 294//294 295//295
f 296//296 292//292 294//294
f 295//295 297//297 293//293
f 294//294 293//293 296//296
f 292//292 296//296 290//290
f 291//291 290//290 298//298
f 289//289 298//298 284//284
f 298//298 289//289 291//291
f 299//299 300//300 301//301
f 301//301 302//302 299//299
f 303//303 304//304 305//305
f 305//305 306//306 303//303
f 307//307 308//308 309//309
f 308//308 307//307 310//310
f 311//311 312//312 313//313
f 314//314 315//315 311//311
f 309//309 316//316 307//307
f 313//313 312//312 317//317
f 318//318 310//310 319//319
f 320//320 319//319 315//315
f 317//317 321//321 313//313
f 313//313 322//322 311//311
f 311//311 322//322 314//314
f 315//315 314//314 320//320
f 319//319 320//320 318//318
f 310//310 318//318 308//308
f 323//323 324//324 325//325
f 326//326 325//325 327//327
f 328//328 327//327 329//329
f 329//329 330//330 331//331
f 331//331 330//330 332//332
f 325//325 326//326 323//323
f 327//327 328//328 326//326
f 329//329 333//333 328//328
f 334//334 332//332 335//335
f 336//336 337//337 338//338
f 335//335 338//338 334//334
f 332//332 334//334 331//331
f 331//331 333//333 329//329
f 338//338 335//335 336//336
f 339//339 340//340 341//341
f 341//341 342//342 339//339
f 343//343 344//344 345//345
f 345//345 346//346 343//343
