#OBJ
#T-FLEX CAD ObjGenerator generate date:5.10.2020 22:13:6
mtllib materials.mtl
v -0.001343 -0.004006 0.001
v -0.002438 -0.004844 0.001
v -0.002385 -0.004897 0.001
v 0.001549 -0.003225 0.001
v 0.001513 -0.003332 0.001
v 0.00174 -0.003041 0.001
v 0.002261 -0.003048 0.001
v 0.002157 -0.003013 0.001
v 0.001496 -0.003501 0.001
v -0.002478 -0.004775 0.001
v 0.002326 -0.004909 0.001
v 0.002389 -0.004848 0.001
v 0.001496 -0.004006 0.001
v 0.002489 -0.004499 0.001
v 0.002489 -0.003497 0.001
v 0.000069 0.004768 0.001
v 0.000016 0.00463 0.001
v 0.000996 0.004519 0.001
v 0.000976 0.004369 0.001
v -0.002483 -0.00437 0.001
v -0.002505 -0.004484 0.001
v 0.001993 -0.002996 0.001
v 0.002472 -0.004666 0.001
v -0.002195 -0.004981 0.001
v -0.002003 -0.004999 0.001
v 0.001993 -0.004999 0.001
v 0.002146 -0.004985 0.001
v 0.000991 0.004447 0.001
v -0.002513 -0.00459 0.001
v 0.002471 -0.003325 0.001
v 0.001841 -0.00301 0.001
v 0.002436 -0.004772 0.001
v -0.002306 -0.004945 0.001
v 0.002247 -0.004954 0.001
v -0.002503 -0.004693 0.001
v 0.002438 -0.003227 0.001
v 0.000662 0.004982 0.001
v 0.000486 0.004999 0.001
v 0.000983 0.004661 0.001
v 0.000293 0.004968 0.001
v 0.000204 0.004922 0.001
v 0.000953 0.004758 0.001
v 0.000908 0.004836 0.001
v 0.000847 0.004898 0.001
v 0.000131 0.004857 0.001
v 0.000771 0.004946 0.001
v 0.000398 0.004994 0.001
v 0.00166 -0.003087 0.001
v 0.002337 -0.003096 0.001
v 0.00239 -0.00315 0.001
v 0.001597 -0.003148 0.001
v -0.001343 -0.004006 0
v -0.002483 -0.00437 0
v 0.000016 0.00463 0
v 0.002471 -0.003325 0
v 0.002489 -0.003497 0
v 0.001496 -0.003501 0
v 0.000991 0.004447 0
v 0.000976 0.004369 0
v 0.000953 0.004758 0
v 0.000771 0.004946 0
v 0.000847 0.004898 0
v 0.000996 0.004519 0
v 0.000131 0.004857 0
v 0.000204 0.004922 0
v 0.000662 0.004982 0
v 0.000069 0.004768 0
v 0.002337 -0.003096 0
v 0.00239 -0.00315 0
v 0.002157 -0.003013 0
v 0.002261 -0.003048 0
v 0.001549 -0.003225 0
v 0.001597 -0.003148 0
v 0.00166 -0.003087 0
v 0.000908 0.004836 0
v 0.000293 0.004968 0
v 0.00174 -0.003041 0
v 0.001513 -0.003332 0
v 0.000983 0.004661 0
v 0.000486 0.004999 0
v 0.001993 -0.002996 0
v -0.002306 -0.004945 0
v -0.002385 -0.004897 0
v 0.000398 0.004994 0
v 0.002438 -0.003227 0
v 0.001496 -0.004006 0
v 0.002472 -0.004666 0
v 0.002436 -0.004772 0
v -0.002195 -0.004981 0
v 0.002389 -0.004848 0
v 0.002326 -0.004909 0
v -0.002438 -0.004844 0
v -0.002478 -0.004775 0
v 0.001841 -0.00301 0
v 0.002489 -0.004499 0
v -0.002003 -0.004999 0
v 0.001993 -0.004999 0
v 0.002247 -0.004954 0
v -0.002503 -0.004693 0
v 0.002146 -0.004985 0
v -0.002513 -0.00459 0
v -0.002505 -0.004484 0
v -0.001343 -0.004006 0.001
v -0.001343 -0.004006 0
v 0.000976 0.004369 0
v 0.000976 0.004369 0.001
v 0.000996 0.004519 0
v 0.000996 0.004519 0.001
v 0.000991 0.004447 0.001
v 0.000991 0.004447 0
v 0.000976 0.004369 0.001
v 0.000976 0.004369 0
v 0.000486 0.004999 0
v 0.000486 0.004999 0.001
v 0.000662 0.004982 0.001
v 0.000983 0.004661 0
v 0.000983 0.004661 0.001
v 0.000996 0.004519 0.001
v 0.000662 0.004982 0
v 0.000771 0.004946 0.001
v 0.000771 0.004946 0
v 0.000847 0.004898 0.001
v 0.000847 0.004898 0
v 0.000908 0.004836 0.001
v 0.000908 0.004836 0
v 0.000953 0.004758 0.001
v 0.000953 0.004758 0
v 0.000996 0.004519 0
v 0.000016 0.00463 0
v 0.000016 0.00463 0.001
v 0.000069 0.004768 0.001
v 0.000131 0.004857 0.001
v 0.000131 0.004857 0
v 0.000069 0.004768 0
v 0.000204 0.004922 0.001
v 0.000204 0.004922 0
v 0.000293 0.004968 0.001
v 0.000293 0.004968 0
v 0.000398 0.004994 0.001
v 0.000398 0.004994 0
v 0.000486 0.004999 0.001
v 0.000486 0.004999 0
v 0.000016 0.00463 0.001
v 0.000016 0.00463 0
v -0.002483 -0.00437 0
v -0.002483 -0.00437 0.001
v -0.002505 -0.004484 0.001
v -0.002505 -0.004484 0
v -0.002513 -0.00459 0
v -0.002483 -0.00437 0.001
v -0.002483 -0.00437 0
v -0.002513 -0.00459 0.001
v -0.002195 -0.004981 0.001
v -0.002195 -0.004981 0
v -0.002003 -0.004999 0
v -0.002306 -0.004945 0
v -0.002306 -0.004945 0.001
v -0.002385 -0.004897 0.001
v -0.002385 -0.004897 0
v -0.002438 -0.004844 0.001
v -0.002438 -0.004844 0
v -0.002478 -0.004775 0.001
v -0.002478 -0.004775 0
v -0.002503 -0.004693 0.001
v -0.002503 -0.004693 0
v -0.002513 -0.00459 0.001
v -0.002513 -0.00459 0
v -0.002003 -0.004999 0.001
v 0.001993 -0.004999 0
v 0.001993 -0.004999 0.001
v -0.002003 -0.004999 0.001
v -0.002003 -0.004999 0
v 0.002326 -0.004909 0
v 0.002326 -0.004909 0.001
v 0.002247 -0.004954 0.001
v 0.002247 -0.004954 0
v 0.002146 -0.004985 0.001
v 0.002146 -0.004985 0
v 0.001993 -0.004999 0.001
v 0.002389 -0.004848 0.001
v 0.002389 -0.004848 0
v 0.002436 -0.004772 0
v 0.002472 -0.004666 0.001
v 0.002472 -0.004666 0
v 0.002489 -0.004499 0
v 0.001993 -0.004999 0
v 0.002436 -0.004772 0.001
v 0.002489 -0.004499 0.001
v 0.002489 -0.004499 0.001
v 0.002489 -0.004499 0
v 0.002489 -0.003497 0
v 0.002489 -0.003497 0.001
v 0.002489 -0.003497 0.001
v 0.002489 -0.003497 0
v 0.002471 -0.003325 0
v 0.002471 -0.003325 0.001
v 0.002438 -0.003227 0
v 0.002438 -0.003227 0.001
v 0.00239 -0.00315 0
v 0.00239 -0.00315 0.001
v 0.002337 -0.003096 0
v 0.002337 -0.003096 0.001
v 0.002261 -0.003048 0
v 0.002157 -0.003013 0.001
v 0.002157 -0.003013 0
v 0.001993 -0.002996 0
v 0.001993 -0.002996 0.001
v 0.002261 -0.003048 0.001
v 0.001513 -0.003332 0
v 0.001496 -0.003501 0
v 0.001496 -0.003501 0.001
v 0.001549 -0.003225 0.001
v 0.001549 -0.003225 0
v 0.001597 -0.003148 0.001
v 0.001597 -0.003148 0
v 0.00174 -0.003041 0.001
v 0.00174 -0.003041 0
v 0.00166 -0.003087 0
v 0.001841 -0.00301 0.001
v 0.001993 -0.002996 0.001
v 0.001993 -0.002996 0
v 0.001841 -0.00301 0
v 0.00166 -0.003087 0.001
v 0.001513 -0.003332 0.001
v 0.001496 -0.003501 0.001
v 0.001496 -0.003501 0
v 0.001496 -0.004006 0
v 0.001496 -0.004006 0.001
v 0.001496 -0.004006 0.001
v 0.001496 -0.004006 0
v -0.001343 -0.004006 0
v -0.001343 -0.004006 0.001
vn 0 0 1
vn 0 0 1
vn 0 0 1
vn 0 0 1
vn 0 0 1
vn 0 0 1
vn 0 0 1
vn 0 0 1
vn 0 0 1
vn 0 0 1
vn 0 0 1
vn 0 0 1
vn 0 0 1
vn 0 0 1
vn 0 0 1
vn 0 0 1
vn 0 0 1
vn 0 0 1
vn 0 0 1
vn 0 0 1
vn 0 0 1
vn 0 0 1
vn 0 0 1
vn 0 0 1
vn 0 0 1
vn 0 0 1
vn 0 0 1
vn 0 0 1
vn 0 0 1
vn 0 0 1
vn 0 0 1
vn 0 0 1
vn 0 0 1
vn 0 0 1
vn 0 0 1
vn 0 0 1
vn 0 0 1
vn 0 0 1
vn 0 0 1
vn 0 0 1
vn 0 0 1
vn 0 0 1
vn 0 0 1
vn 0 0 1
vn 0 0 1
vn 0 0 1
vn 0 0 1
vn 0 0 1
vn 0 0 1
vn 0 0 1
vn 0 0 1
vn 0 0 -1
vn 0 0 -1
vn 0 0 -1
vn 0 0 -1
vn 0 0 -1
vn 0 0 -1
vn 0 0 -1
vn 0 0 -1
vn 0 0 -1
vn 0 0 -1
vn 0 0 -1
vn 0 0 -1
vn 0 0 -1
vn 0 0 -1
vn 0 0 -1
vn 0 0 -1
vn 0 0 -1
vn 0 0 -1
vn 0 0 -1
vn 0 0 -1
vn 0 0 -1
vn 0 0 -1
vn 0 0 -1
vn 0 0 -1
vn 0 0 -1
vn 0 0 -1
vn 0 0 -1
vn 0 0 -1
vn 0 0 -1
vn 0 0 -1
vn 0 0 -1
vn 0 0 -1
vn 0 0 -1
vn 0 0 -1
vn 0 0 -1
vn 0 0 -1
vn 0 0 -1
vn 0 0 -1
vn 0 0 -1
vn 0 0 -1
vn 0 0 -1
vn 0 0 -1
vn 0 0 -1
vn 0 0 -1
vn 0 0 -1
vn 0 0 -1
vn 0 0 -1
vn 0 0 -1
vn 0 0 -1
vn 0 0 -1
vn 0 0 -1
vn 0.963725 -0.266894 0
vn 0.963725 -0.266894 0
vn 0.963725 -0.266894 0
vn 0.963725 -0.266894 0
vn 1 0 0
vn 1 0 0
vn 0.991337 -0.131338 0
vn 0.991337 -0.131338 0
vn 0.970529 -0.240981 0
vn 0.970529 -0.240981 0
vn 0 1 0
vn 0 1 0
vn 0.216328 0.97632 0
vn 0.98017 0.198156 0
vn 0.98017 0.198156 0
vn 1 0 0
vn 0.216328 0.97632 0
vn 0.429085 0.903264 0
vn 0.429085 0.903264 0
vn 0.626367 0.779528 0
vn 0.626367 0.779528 0
vn 0.797935 0.602743 0
vn 0.797935 0.602743 0
vn 0.916679 0.399622 0
vn 0.916679 0.399622 0
vn 1 0 0
vn -0.965237 0.261374 0
vn -0.965237 0.261374 0
vn -0.882097 0.471067 0
vn -0.750515 0.660852 0
vn -0.750515 0.660852 0
vn -0.882097 0.471067 0
vn -0.564938 0.825133 0
vn -0.564938 0.825133 0
vn -0.348033 0.937482 0
vn -0.348033 0.937482 0
vn -0.136619 0.990623 0
vn -0.136619 0.990623 0
vn 0 1 0
vn 0 1 0
vn -0.963526 0.267612 0
vn -0.963526 0.267612 0
vn -0.963526 0.267612 0
vn -0.963526 0.267612 0
vn -0.990859 0.134894 0
vn -0.990859 0.134894 0
vn -1 0 0
vn -0.970142 0.242535 0
vn -0.970142 0.242535 0
vn -1 0 0
vn -0.209344 -0.977842 0
vn -0.209344 -0.977842 0
vn 0 -1 0
vn -0.417525 -0.908665 0
vn -0.417525 -0.908665 0
vn -0.626621 -0.779323 0
vn -0.626621 -0.779323 0
vn -0.791167 -0.611599 0
vn -0.791167 -0.611599 0
vn -0.916067 -0.401024 0
vn -0.916067 -0.401024 0
vn -0.981394 -0.192002 0
vn -0.981394 -0.192002 0
vn -1 0 0
vn -1 0 0
vn 0 -1 0
vn 0 -1 0
vn 0 -1 0
vn 0 -1 0
vn 0 -1 0
vn 0.599654 -0.800259 0
vn 0.599654 -0.800259 0
vn 0.398994 -0.916953 0
vn 0.398994 -0.916953 0
vn 0.199874 -0.979821 0
vn 0.199874 -0.979821 0
vn 0 -1 0
vn 0.777164 -0.629297 0
vn 0.777164 -0.629297 0
vn 0.901871 -0.432003 0
vn 0.975924 -0.218108 0
vn 0.975924 -0.218108 0
vn 1 0 0
vn 0 -1 0
vn 0.901871 -0.432003 0
vn 1 0 0
vn 1 0 0
vn 1 0 0
vn 1 0 0
vn 1 0 0
vn 1 0 0
vn 1 0 0
vn 0.97411 0.226073 0
vn 0.97411 0.226073 0
vn 0.905124 0.425146 0
vn 0.905124 0.425146 0
vn 0.781757 0.623582 0
vn 0.781757 0.623582 0
vn 0.630228 0.776409 0
vn 0.630228 0.776409 0
vn 0.432935 0.901424 0
vn 0.218679 0.975796 0
vn 0.218679 0.975796 0
vn 0 1 0
vn 0 1 0
vn 0.432935 0.901424 0
vn -0.975989 0.217817 0
vn -1 0 0
vn -1 0 0
vn -0.902099 0.431527 0
vn -0.902099 0.431527 0
vn -0.777549 0.628821 0
vn -0.777549 0.628821 0
vn -0.399142 0.916888 0
vn -0.399142 0.916888 0
vn -0.600217 0.799836 0
vn -0.199623 0.979872 0
vn 0 1 0
vn 0 1 0
vn -0.199623 0.979872 0
vn -0.600217 0.799836 0
vn -0.975989 0.217817 0
vn -1 0 0
vn -1 0 0
vn -1 0 0
vn -1 0 0
vn 0 1 0
vn 0 1 0
vn 0 1 0
vn 0 1 0
usemtl App0
f 1//1 2//2 3//3
f 4//4 5//5 6//6
f 7//7 8//8 9//9
f 10//10 2//2 1//1
f 11//11 12//12 13//13
f 13//13 14//14 15//15
f 16//16 17//17 18//18
f 5//5 9//9 6//6
f 1//1 19//19 17//17
f 1//1 20//20 21//21
f 8//8 22//22 9//9
f 23//23 14//14 13//13
f 24//24 25//25 1//1
f 13//13 26//26 27//27
f 17//17 20//20 1//1
f 17//17 19//19 28//28
f 1//1 21//21 29//29
f 9//9 15//15 30//30
f 9//9 22//22 31//31
f 32//32 23//23 13//13
f 15//15 9//9 13//13
f 33//33 24//24 1//1
f 26//26 13//13 1//1
f 13//13 27//27 34//34
f 17//17 28//28 18//18
f 1//1 25//25 26//26
f 1//1 29//29 35//35
f 1//1 35//35 10//10
f 9//9 30//30 36//36
f 9//9 31//31 6//6
f 13//13 12//12 32//32
f 3//3 33//33 1//1
f 13//13 34//34 11//11
f 37//37 38//38 39//39
f 18//18 40//40 41//41
f 42//42 43//43 44//44
f 41//41 45//45 18//18
f 44//44 46//46 42//42
f 18//18 47//47 40//40
f 37//37 39//39 42//42
f 4//4 6//6 48//48
f 9//9 49//49 7//7
f 9//9 36//36 50//50
f 45//45 16//16 18//18
f 46//46 37//37 42//42
f 48//48 51//51 4//4
f 50//50 49//49 9//9
f 18//18 38//38 47//47
f 38//38 18//18 39//39
f 52//52 53//53 54//54
f 55//55 56//56 57//57
f 58//58 59//59 54//54
f 60//60 61//61 62//62
f 63//63 64//64 65//65
f 60//60 66//66 61//61
f 63//63 67//67 64//64
f 57//57 68//68 69//69
f 57//57 70//70 71//71
f 72//72 73//73 74//74
f 62//62 75//75 60//60
f 65//65 76//76 63//63
f 71//71 68//68 57//57
f 77//77 78//78 72//72
f 79//79 80//80 66//66
f 63//63 54//54 67//67
f 57//57 81//81 70//70
f 77//77 57//57 78//78
f 52//52 82//82 83//83
f 60//60 79//79 66//66
f 76//76 84//84 63//63
f 69//69 85//85 57//57
f 74//74 77//77 72//72
f 86//86 87//87 88//88
f 52//52 89//89 82//82
f 86//86 90//90 91//91
f 84//84 80//80 63//63
f 52//52 92//92 93//93
f 85//85 55//55 57//57
f 77//77 94//94 57//57
f 86//86 95//95 87//87
f 56//56 95//95 86//86
f 52//52 96//96 89//89
f 97//97 96//96 52//52
f 91//91 98//98 86//86
f 79//79 63//63 80//80
f 93//93 99//99 52//52
f 94//94 81//81 57//57
f 86//86 57//57 56//56
f 52//52 86//86 97//97
f 98//98 100//100 86//86
f 54//54 59//59 52//52
f 63//63 58//58 54//54
f 99//99 101//101 52//52
f 88//88 90//90 86//86
f 100//100 97//97 86//86
f 101//101 102//102 52//52
f 83//83 92//92 52//52
f 102//102 53//53 52//52
f 103//103 104//104 105//105
f 105//105 106//106 103//103
f 107//107 108//108 109//109
f 110//110 109//109 111//111
f 111//111 112//112 110//110
f 109//109 110//110 107//107
f 113//113 114//114 115//115
f 116//116 117//117 118//118
f 119//119 115//115 120//120
f 121//121 120//120 122//122
f 123//123 122//122 124//124
f 125//125 124//124 126//126
f 127//127 126//126 117//117
f 118//118 128//128 116//116
f 117//117 116//116 127//127
f 126//126 127//127 125//125
f 124//124 125//125 123//123
f 122//122 123//123 121//121
f 120//120 121//121 119//119
f 115//115 119//119 113//113
f 129//129 130//130 131//131
f 132//132 133//133 134//134
f 135//135 136//136 133//133
f 137//137 138//138 136//136
f 139//139 140//140 138//138
f 140//140 139//139 141//141
f 138//138 137//137 139//139
f 136//136 135//135 137//137
f 133//133 132//132 135//135
f 134//134 131//131 132//132
f 141//141 142//142 140//140
f 131//131 134//134 129//129
f 143//143 144//144 145//145
f 145//145 146//146 143//143
f 147//147 148//148 149//149
f 150//150 151//151 148//148
f 148//148 147//147 150//150
f 149//149 152//152 147//147
f 153//153 154//154 155//155
f 156//156 157//157 158//158
f 159//159 158//158 160//160
f 161//161 160//160 162//162
f 163//163 162//162 164//164
f 165//165 164//164 166//166
f 166//166 167//167 165//165
f 164//164 165//165 163//163
f 162//162 163//163 161//161
f 160//160 161//161 159//159
f 158//158 159//159 156//156
f 155//155 168//168 153//153
f 157//157 156//156 154//154
f 154//154 153//153 157//157
f 169//169 170//170 171//171
f 171//171 172//172 169//169
f 173//173 174//174 175//175
f 176//176 175//175 177//177
f 178//178 177//177 179//179
f 177//177 178//178 176//176
f 175//175 176//176 173//173
f 180//180 181//181 182//182
f 174//174 173//173 181//181
f 183//183 184//184 185//185
f 179//179 186//186 178//178
f 187//187 182//182 184//184
f 185//185 188//188 183//183
f 184//184 183//183 187//187
f 182//182 187//187 180//180
f 181//181 180//180 174//174
f 189//189 190//190 191//191
f 191//191 192//192 189//189
f 193//193 194//194 195//195
f 196//196 195//195 197//197
f 198//198 197//197 199//199
f 200//200 199//199 201//201
f 202//202 201//201 203//203
f 204//204 205//205 206//206
f 195//195 196//196 193//193
f 203//203 205//205 204//204
f 206//206 207//207 204//204
f 204//204 208//208 203//203
f 203//203 208//208 202//202
f 201//201 202//202 200//200
f 199//199 200//200 198//198
f 197//197 198//198 196//196
f 209//209 210//210 211//211
f 212//212 213//213 209//209
f 214//214 215//215 213//213
f 216//216 217//217 218//218
f 217//217 216//216 219//219
f 220//220 221//221 222//222
f 219//219 222//222 217//217
f 223//223 218//218 215//215
f 222//222 219//219 220//220
f 211//211 224//224 209//209
f 209//209 224//224 212//212
f 213//213 212//212 214//214
f 215//215 214//214 223//223
f 218//218 223//223 216//216
f 225//225 226//226 227//227
f 227//227 228//228 225//225
f 229//229 230//230 231//231
f 231//231 232//232 229//229
