#OBJ
#T-FLEX CAD ObjGenerator generate date:5.10.2020 22:12:19
mtllib materials.mtl
v -0.002259 0.001295 0.001
v -0.002493 -0.00051 0.001
v -0.001308 0.000993 0.001
v 0.002434 -0.003485 0.001
v 0.001469 -0.003244 0.001
v 0.001393 -0.00345 0.001
v 0.001487 -0.000863 0.001
v 0.001496 -0.001001 0.001
v 0.002489 -0.001004 0.001
v -0.00148 0 0.001
v -0.000875 0.002129 0.001
v -0.000335 0.002942 0.001
v -0.001325 0.003305 0.001
v 0.00086 -0.00394 0.001
v 0.001225 -0.004866 0.001
v 0.001617 -0.004654 0.001
v 0.001429 -0.000635 0.001
v 0.002355 -0.000269 0.001
v 0.002145 0.000119 0.001
v -0.001029 0.001794 0.001
v -0.001952 0.002189 0.001
v 0.00033 0.003555 0.001
v -0.000551 0.004135 0.001
v 0.001056 -0.003834 0.001
v 0.002023 -0.004284 0.001
v -0.001432 -0.003371 0.001
v -0.002358 -0.003741 0.001
v -0.002147 -0.004132 0.001
v 0.001322 -0.000438 0.001
v 0.001774 0.000525 0.001
v 0.002471 -0.000722 0.001
v -0.001187 0.001393 0.001
v 0.0012 0.004038 0.001
v 0.000463 0.004798 0.001
v 0.002284 -0.003895 0.001
v -0.001491 -0.003143 0.001
v -0.002474 -0.003285 0.001
v -0.001326 -0.003568 0.001
v -0.001782 -0.004533 0.001
v 0.000939 -0.000101 0.001
v 0.001383 0.000788 0.001
v 0.000972 0.000938 0.001
v 0.001498 0.00463 0.001
v 0.001414 0.00484 0.001
v 0.001354 0.004903 0.001
v 0.000497 -0.004006 0.001
v -0.000501 -0.004006 0.001
v -0.000499 -0.004999 0.001
v 0.000496 -0.004999 0.001
v 0.000769 -0.004982 0.001
v 0.000633 -0.003998 0.001
v 0.00146 0.00476 0.001
v 0.001029 0.004999 0.001
v 0.001407 0.004181 0.001
v 0.001463 0.004264 0.001
v -0.0015 -0.003005 0.001
v -0.0015 -0.0005 0.001
v -0.000738 -0.00398 0.001
v 0.00128 0.00495 0.001
v 0.00133 0.00411 0.001
v -0.002493 -0.003 0.001
v 0.001181 0.004984 0.001
v 0.001496 0.004358 0.001
v 0.000495 0.000993 0.001
v 0.000497 0 0.001
v 0.000734 -0.000026 0.001
v -0.001495 -0.00021 0.001
v -0.001137 -0.003774 0.001
v -0.001393 -0.004795 0.001
v -0.000942 -0.003904 0.001
v -0.000983 -0.004945 0.001
v 0.002489 -0.003002 0.001
v 0.001496 -0.003005 0.001
v 0.00151 0.004478 0.001
v 0.001134 -0.000232 0.001
v 0.001262 -0.003646 0.001
v 0.000946 0.004993 0.001
v 0.00082 0.004959 0.001
v 0.000972 0.000938 0
v 0.001383 0.000788 0
v 0.000939 -0.000101 0
v -0.001495 -0.00021 0
v -0.0015 -0.0005 0
v -0.002493 -0.00051 0
v -0.001308 0.000993 0
v 0.000497 0 0
v -0.00148 0 0
v 0.00086 -0.00394 0
v 0.001225 -0.004866 0
v 0.000769 -0.004982 0
v -0.001187 0.001393 0
v -0.002259 0.001295 0
v -0.001432 -0.003371 0
v -0.002358 -0.003741 0
v -0.002474 -0.003285 0
v 0.001429 -0.000635 0
v 0.002355 -0.000269 0
v 0.002471 -0.000722 0
v -0.000335 0.002942 0
v -0.001325 0.003305 0
v -0.000551 0.004135 0
v 0.000734 -0.000026 0
v -0.001491 -0.003143 0
v -0.002493 -0.003 0
v -0.001326 -0.003568 0
v -0.002147 -0.004132 0
v 0.001056 -0.003834 0
v 0.001617 -0.004654 0
v 0.001322 -0.000438 0
v 0.002145 0.000119 0
v 0.000463 0.004798 0
v 0.00082 0.004959 0
v 0.0012 0.004038 0
v -0.000875 0.002129 0
v -0.001952 0.002189 0
v -0.0015 -0.003005 0
v -0.000942 -0.003904 0
v -0.001393 -0.004795 0
v -0.001782 -0.004533 0
v 0.001393 -0.00345 0
v 0.002284 -0.003895 0
v 0.002023 -0.004284 0
v 0.001134 -0.000232 0
v 0.001774 0.000525 0
v 0.00133 0.00411 0
v 0.001029 0.004999 0
v 0.00033 0.003555 0
v -0.001137 -0.003774 0
v -0.000738 -0.00398 0
v -0.000983 -0.004945 0
v 0.001262 -0.003646 0
v 0.001469 -0.003244 0
v 0.002434 -0.003485 0
v 0.000946 0.004993 0
v -0.001029 0.001794 0
v 0.000633 -0.003998 0
v 0.000496 -0.004999 0
v 0.001487 -0.000863 0
v 0.002489 -0.001004 0
v 0.000495 0.000993 0
v 0.001498 0.00463 0
v 0.00151 0.004478 0
v -0.000501 -0.004006 0
v -0.000499 -0.004999 0
v 0.001496 -0.003005 0
v 0.002489 -0.003002 0
v 0.001414 0.00484 0
v 0.00146 0.00476 0
v 0.001407 0.004181 0
v 0.001181 0.004984 0
v 0.001496 0.004358 0
v 0.000497 -0.004006 0
v 0.001496 -0.001001 0
v 0.00128 0.00495 0
v 0.001463 0.004264 0
v 0.001354 0.004903 0
v -0.00148 0 0.001
v -0.00148 0 0
v 0.000497 0 0
v 0.000497 0 0.001
v 0.001496 -0.001001 0
v 0.001496 -0.001001 0.001
v 0.001487 -0.000863 0.001
v 0.001487 -0.000863 0
v 0.001429 -0.000635 0.001
v 0.001429 -0.000635 0
v 0.001322 -0.000438 0.001
v 0.001322 -0.000438 0
v 0.001134 -0.000232 0.001
v 0.001134 -0.000232 0
v 0.000939 -0.000101 0.001
v 0.000939 -0.000101 0
v 0.000734 -0.000026 0.001
v 0.000734 -0.000026 0
v 0.000497 0 0.001
v 0.000497 0 0
v 0.001496 -0.003005 0
v 0.001496 -0.003005 0.001
v 0.001496 -0.001001 0.001
v 0.001496 -0.001001 0
v 0.000633 -0.003998 0
v 0.000633 -0.003998 0.001
v 0.00086 -0.00394 0.001
v 0.000497 -0.004006 0
v 0.00086 -0.00394 0
v 0.001262 -0.003646 0.001
v 0.001262 -0.003646 0
v 0.001056 -0.003834 0
v 0.001393 -0.00345 0.001
v 0.001393 -0.00345 0
v 0.001469 -0.003244 0.001
v 0.001469 -0.003244 0
v 0.001056 -0.003834 0.001
v 0.001496 -0.003005 0.001
v 0.001496 -0.003005 0
v 0.000497 -0.004006 0.001
v 0.000497 -0.004006 0.001
v 0.000497 -0.004006 0
v -0.000501 -0.004006 0
v -0.000501 -0.004006 0.001
v -0.001326 -0.003568 0.001
v -0.001326 -0.003568 0
v -0.001432 -0.003371 0
v -0.001432 -0.003371 0.001
v -0.001491 -0.003143 0
v -0.000501 -0.004006 0.001
v -0.000501 -0.004006 0
v -0.000738 -0.00398 0
v -0.0015 -0.003005 0
v -0.0015 -0.003005 0.001
v -0.001491 -0.003143 0.001
v -0.001137 -0.003774 0.001
v -0.001137 -0.003774 0
v -0.000942 -0.003904 0.001
v -0.000942 -0.003904 0
v -0.000738 -0.00398 0.001
v -0.0015 -0.003005 0.001
v -0.0015 -0.003005 0
v -0.0015 -0.0005 0
v -0.0015 -0.0005 0.001
v -0.001495 -0.00021 0
v -0.001495 -0.00021 0.001
v -0.0015 -0.0005 0.001
v -0.00148 0 0
v -0.00148 0 0.001
v -0.0015 -0.0005 0
v -0.001029 0.001794 0.001
v -0.001029 0.001794 0
v -0.000875 0.002129 0
v 0.00033 0.003555 0.001
v 0.00033 0.003555 0
v 0.0012 0.004038 0
v -0.000875 0.002129 0.001
v -0.000335 0.002942 0
v 0.0012 0.004038 0.001
v -0.000335 0.002942 0.001
v 0.001463 0.004264 0.001
v 0.001463 0.004264 0
v 0.001496 0.004358 0
v 0.001496 0.004358 0.001
v 0.00151 0.004478 0
v 0.00151 0.004478 0.001
v 0.001407 0.004181 0.001
v 0.001407 0.004181 0
v 0.00133 0.00411 0.001
v 0.00133 0.00411 0
v 0.0012 0.004038 0.001
v 0.0012 0.004038 0
v 0.001029 0.004999 0.001
v 0.001181 0.004984 0.001
v 0.001181 0.004984 0
v 0.00128 0.00495 0.001
v 0.00128 0.00495 0
v 0.001354 0.004903 0.001
v 0.001354 0.004903 0
v 0.001414 0.00484 0.001
v 0.001414 0.00484 0
v 0.00146 0.00476 0.001
v 0.001498 0.00463 0
v 0.001498 0.00463 0.001
v 0.00151 0.004478 0.001
v 0.00151 0.004478 0
v 0.00146 0.00476 0
v 0.001029 0.004999 0
v 0.00082 0.004959 0
v 0.00082 0.004959 0.001
v 0.000946 0.004993 0.001
v 0.000946 0.004993 0
v 0.001029 0.004999 0.001
v 0.001029 0.004999 0
v -0.001952 0.002189 0
v -0.001952 0.002189 0.001
v -0.001325 0.003305 0.001
v -0.000551 0.004135 0.001
v -0.000551 0.004135 0
v 0.000463 0.004798 0.001
v 0.000463 0.004798 0
v 0.00082 0.004959 0.001
v -0.001325 0.003305 0
v 0.00082 0.004959 0
v -0.002493 -0.00051 0
v -0.002493 -0.00051 0.001
v -0.002259 0.001295 0.001
v -0.002259 0.001295 0
v -0.001952 0.002189 0.001
v -0.001952 0.002189 0
v -0.002493 -0.003 0
v -0.002493 -0.003 0.001
v -0.002493 -0.00051 0.001
v -0.002493 -0.00051 0
v -0.002358 -0.003741 0.001
v -0.002358 -0.003741 0
v -0.002147 -0.004132 0
v -0.002147 -0.004132 0.001
v -0.001782 -0.004533 0
v -0.001782 -0.004533 0.001
v -0.001393 -0.004795 0
v -0.000983 -0.004945 0.001
v -0.000983 -0.004945 0
v -0.000499 -0.004999 0
v -0.000499 -0.004999 0.001
v -0.001393 -0.004795 0.001
v -0.002474 -0.003285 0
v -0.002474 -0.003285 0.001
v -0.002493 -0.003 0.001
v -0.002493 -0.003 0
v -0.000499 -0.004999 0.001
v -0.000499 -0.004999 0
v 0.000496 -0.004999 0
v 0.000496 -0.004999 0.001
v 0.002023 -0.004284 0
v 0.002023 -0.004284 0.001
v 0.001617 -0.004654 0.001
v 0.002284 -0.003895 0
v 0.002284 -0.003895 0.001
v 0.002434 -0.003485 0
v 0.002434 -0.003485 0.001
v 0.002489 -0.003002 0
v 0.002489 -0.003002 0.001
v 0.001617 -0.004654 0
v 0.001225 -0.004866 0.001
v 0.001225 -0.004866 0
v 0.000769 -0.004982 0.001
v 0.000496 -0.004999 0.001
v 0.000496 -0.004999 0
v 0.000769 -0.004982 0
v 0.002489 -0.003002 0.001
v 0.002489 -0.003002 0
v 0.002489 -0.001004 0
v 0.002489 -0.001004 0.001
v 0.002355 -0.000269 0.001
v 0.002355 -0.000269 0
v 0.002145 0.000119 0
v 0.002145 0.000119 0.001
v 0.001774 0.000525 0
v 0.001774 0.000525 0.001
v 0.001383 0.000788 0
v 0.000495 0.000993 0
v 0.000495 0.000993 0.001
v 0.000972 0.000938 0.001
v 0.000972 0.000938 0
v 0.001383 0.000788 0.001
v 0.002471 -0.000722 0.001
v 0.002471 -0.000722 0
v 0.002489 -0.001004 0.001
v 0.002489 -0.001004 0
v 0.000495 0.000993 0.001
v 0.000495 0.000993 0
v -0.001308 0.000993 0
v -0.001308 0.000993 0.001
v -0.001029 0.001794 0
v -0.001029 0.001794 0.001
v -0.001187 0.001393 0.001
v -0.001308 0.000993 0.001
v -0.001308 0.000993 0
v -0.001187 0.001393 0
vn 0 0 1
vn 0 0 1
vn 0 0 1
vn 0 0 1
vn 0 0 1
vn 0 0 1
vn 0 0 1
vn 0 0 1
vn 0 0 1
vn 0 0 1
vn 0 0 1
vn 0 0 1
vn 0 0 1
vn 0 0 1
vn 0 0 1
vn 0 0 1
vn 0 0 1
vn 0 0 1
vn 0 0 1
vn 0 0 1
vn 0 0 1
vn 0 0 1
vn 0 0 1
vn 0 0 1
vn 0 0 1
vn 0 0 1
vn 0 0 1
vn 0 0 1
vn 0 0 1
vn 0 0 1
vn 0 0 1
vn 0 0 1
vn 0 0 1
vn 0 0 1
vn 0 0 1
vn 0 0 1
vn 0 0 1
vn 0 0 1
vn 0 0 1
vn 0 0 1
vn 0 0 1
vn 0 0 1
vn 0 0 1
vn 0 0 1
vn 0 0 1
vn 0 0 1
vn 0 0 1
vn 0 0 1
vn 0 0 1
vn 0 0 1
vn 0 0 1
vn 0 0 1
vn 0 0 1
vn 0 0 1
vn 0 0 1
vn 0 0 1
vn 0 0 1
vn 0 0 1
vn 0 0 1
vn 0 0 1
vn 0 0 1
vn 0 0 1
vn 0 0 1
vn 0 0 1
vn 0 0 1
vn 0 0 1
vn 0 0 1
vn 0 0 1
vn 0 0 1
vn 0 0 1
vn 0 0 1
vn 0 0 1
vn 0 0 1
vn 0 0 1
vn 0 0 1
vn 0 0 1
vn 0 0 1
vn 0 0 1
vn 0 0 -1
vn 0 0 -1
vn 0 0 -1
vn 0 0 -1
vn 0 0 -1
vn 0 0 -1
vn 0 0 -1
vn 0 0 -1
vn 0 0 -1
vn 0 0 -1
vn 0 0 -1
vn 0 0 -1
vn 0 0 -1
vn 0 0 -1
vn 0 0 -1
vn 0 0 -1
vn 0 0 -1
vn 0 0 -1
vn 0 0 -1
vn 0 0 -1
vn 0 0 -1
vn 0 0 -1
vn 0 0 -1
vn 0 0 -1
vn 0 0 -1
vn 0 0 -1
vn 0 0 -1
vn 0 0 -1
vn 0 0 -1
vn 0 0 -1
vn 0 0 -1
vn 0 0 -1
vn 0 0 -1
vn 0 0 -1
vn 0 0 -1
vn 0 0 -1
vn 0 0 -1
vn 0 0 -1
vn 0 0 -1
vn 0 0 -1
vn 0 0 -1
vn 0 0 -1
vn 0 0 -1
vn 0 0 -1
vn 0 0 -1
vn 0 0 -1
vn 0 0 -1
vn 0 0 -1
vn 0 0 -1
vn 0 0 -1
vn 0 0 -1
vn 0 0 -1
vn 0 0 -1
vn 0 0 -1
vn 0 0 -1
vn 0 0 -1
vn 0 0 -1
vn 0 0 -1
vn 0 0 -1
vn 0 0 -1
vn 0 0 -1
vn 0 0 -1
vn 0 0 -1
vn 0 0 -1
vn 0 0 -1
vn 0 0 -1
vn 0 0 -1
vn 0 0 -1
vn 0 0 -1
vn 0 0 -1
vn 0 0 -1
vn 0 0 -1
vn 0 0 -1
vn 0 0 -1
vn 0 0 -1
vn 0 0 -1
vn 0 0 -1
vn 0 0 -1
vn 0 -1 0
vn 0 -1 0
vn 0 -1 0
vn 0 -1 0
vn -1 0 0
vn -1 0 0
vn -0.991685 -0.128685 0
vn -0.991685 -0.128685 0
vn -0.9297 -0.368316 0
vn -0.9297 -0.368316 0
vn -0.818242 -0.574873 0
vn -0.818242 -0.574873 0
vn -0.648979 -0.760805 0
vn -0.648979 -0.760805 0
vn -0.452638 -0.891693 0
vn -0.452638 -0.891693 0
vn -0.231711 -0.972784 0
vn -0.231711 -0.972784 0
vn 0 -1 0
vn 0 -1 0
vn -1 0 0
vn -1 0 0
vn -1 0 0
vn -1 0 0
vn -0.12777 0.991803 0
vn -0.12777 0.991803 0
vn -0.367657 0.929961 0
vn 0 1 0
vn -0.367657 0.929961 0
vn -0.760651 0.64916 0
vn -0.760651 0.64916 0
vn -0.574283 0.818656 0
vn -0.891712 0.452601 0
vn -0.891712 0.452601 0
vn -0.972792 0.231677 0
vn -0.972792 0.231677 0
vn -0.574283 0.818656 0
vn -1 0 0
vn -1 0 0
vn 0 1 0
vn 0 1 0
vn 0 1 0
vn 0 1 0
vn 0 1 0
vn 0.818242 0.574873 0
vn 0.818242 0.574873 0
vn 0.9297 0.368316 0
vn 0.9297 0.368316 0
vn 0.991685 0.128685 0
vn 0 1 0
vn 0 1 0
vn 0.231711 0.972784 0
vn 1 0 0
vn 1 0 0
vn 0.991685 0.128685 0
vn 0.648979 0.760805 0
vn 0.648979 0.760805 0
vn 0.452638 0.891693 0
vn 0.452638 0.891693 0
vn 0.231711 0.972784 0
vn 1 0 0
vn 1 0 0
vn 1 0 0
vn 1 0 0
vn 0.999213 -0.039642 0
vn 0.999213 -0.039642 0
vn 1 0 0
vn 0.993269 -0.115828 0
vn 0.993269 -0.115828 0
vn 1 0 0
vn 0.923855 -0.382742 0
vn 0.923855 -0.382742 0
vn 0.891147 -0.453714 0
vn 0.586676 -0.809821 0
vn 0.586676 -0.809821 0
vn 0.383125 -0.923696 0
vn 0.891147 -0.453714 0
vn 0.759679 -0.650297 0
vn 0.383125 -0.923696 0
vn 0.759679 -0.650297 0
vn 0.893534 -0.448993 0
vn 0.893534 -0.448993 0
vn 0.973444 -0.228922 0
vn 0.973444 -0.228922 0
vn 1 0 0
vn 1 0 0
vn 0.757908 -0.652361 0
vn 0.757908 -0.652361 0
vn 0.591143 -0.806566 0
vn 0.591143 -0.806566 0
vn 0.387658 -0.921802 0
vn 0.387658 -0.921802 0
vn 0 1 0
vn 0.220844 0.975309 0
vn 0.220844 0.975309 0
vn 0.436452 0.899727 0
vn 0.436452 0.899727 0
vn 0.633714 0.773567 0
vn 0.633714 0.773567 0
vn 0.802337 0.59687 0
vn 0.802337 0.59687 0
vn 0.916261 0.40058 0
vn 0.985503 0.169655 0
vn 0.985503 0.169655 0
vn 1 0 0
vn 1 0 0
vn 0.916261 0.40058 0
vn 0 1 0
vn -0.371826 0.928302 0
vn -0.371826 0.928302 0
vn -0.144646 0.989483 0
vn -0.144646 0.989483 0
vn 0 1 0
vn 0 1 0
vn -0.921049 0.389444 0
vn -0.921049 0.389444 0
vn -0.806115 0.591758 0
vn -0.645627 0.763652 0
vn -0.645627 0.763652 0
vn -0.444452 0.895802 0
vn -0.444452 0.895802 0
vn -0.381232 0.924479 0
vn -0.806115 0.591758 0
vn -0.381232 0.924479 0
vn -1 0 0
vn -1 0 0
vn -0.966089 0.258206 0
vn -0.966089 0.258206 0
vn -0.92134 0.388757 0
vn -0.92134 0.388757 0
vn -1 0 0
vn -1 0 0
vn -1 0 0
vn -1 0 0
vn -0.930546 -0.366173 0
vn -0.930546 -0.366173 0
vn -0.819445 -0.573157 0
vn -0.819445 -0.573157 0
vn -0.650767 -0.759277 0
vn -0.650767 -0.759277 0
vn -0.452239 -0.891896 0
vn -0.231362 -0.972867 0
vn -0.231362 -0.972867 0
vn 0 -1 0
vn 0 -1 0
vn -0.452239 -0.891896 0
vn -0.991576 -0.129525 0
vn -0.991576 -0.129525 0
vn -1 0 0
vn -1 0 0
vn 0 -1 0
vn 0 -1 0
vn 0 -1 0
vn 0 -1 0
vn 0.759338 -0.650695 0
vn 0.759338 -0.650695 0
vn 0.573736 -0.819039 0
vn 0.891887 -0.452256 0
vn 0.891887 -0.452256 0
vn 0.972864 -0.231377 0
vn 0.972864 -0.231377 0
vn 1 0 0
vn 1 0 0
vn 0.573736 -0.819039 0
vn 0.367022 -0.930211 0
vn 0.367022 -0.930211 0
vn 0.127572 -0.991829 0
vn 0 -1 0
vn 0 -1 0
vn 0.127572 -0.991829 0
vn 1 0 0
vn 1 0 0
vn 1 0 0
vn 1 0 0
vn 0.93036 0.366645 0
vn 0.93036 0.366645 0
vn 0.819151 0.573577 0
vn 0.819151 0.573577 0
vn 0.649238 0.760584 0
vn 0.649238 0.760584 0
vn 0.452585 0.891721 0
vn 0 1 0
vn 0 1 0
vn 0.231663 0.972796 0
vn 0.231663 0.972796 0
vn 0.452585 0.891721 0
vn 0.991567 0.129589 0
vn 0.991567 0.129589 0
vn 1 0 0
vn 1 0 0
vn 0 1 0
vn 0 1 0
vn 0 1 0
vn 0 1 0
vn 0.915928 -0.401341 0
vn 0.915928 -0.401341 0
vn 0.944496 -0.32852 0
vn 0.968415 -0.24934 0
vn 0.968415 -0.24934 0
vn 0.944496 -0.32852 0
usemtl App0
f 1//1 2//2 3//3
f 4//4 5//5 6//6
f 7//7 8//8 9//9
f 10//10 3//3 2//2
f 11//11 12//12 13//13
f 14//14 15//15 16//16
f 17//17 18//18 19//19
f 20//20 11//11 21//21
f 12//12 22//22 23//23
f 24//24 16//16 25//25
f 26//26 27//27 28//28
f 29//29 19//19 30//30
f 17//17 7//7 31//31
f 3//3 32//32 1//1
f 13//13 21//21 11//11
f 23//23 13//13 12//12
f 22//22 33//33 34//34
f 6//6 35//35 4//4
f 16//16 24//24 14//14
f 26//26 36//36 37//37
f 38//38 28//28 39//39
f 40//40 41//41 42//42
f 19//19 29//29 17//17
f 31//31 18//18 17//17
f 43//43 44//44 45//45
f 46//46 47//47 48//48
f 49//49 50//50 51//51
f 43//43 52//52 44//44
f 53//53 54//54 55//55
f 56//56 57//57 2//2
f 48//48 47//47 58//58
f 51//51 46//46 49//49
f 45//45 59//59 43//43
f 53//53 60//60 54//54
f 2//2 61//61 56//56
f 48//48 49//49 46//46
f 50//50 15//15 14//14
f 59//59 62//62 43//43
f 55//55 63//63 53//53
f 9//9 31//31 7//7
f 64//64 65//65 66//66
f 65//65 64//64 3//3
f 57//57 67//67 2//2
f 61//61 37//37 36//36
f 39//39 68//68 38//38
f 39//39 69//69 70//70
f 71//71 58//58 70//70
f 14//14 51//51 50//50
f 72//72 73//73 5//5
f 73//73 72//72 9//9
f 53//53 74//74 43//43
f 53//53 33//33 60//60
f 30//30 75//75 29//29
f 30//30 41//41 40//40
f 42//42 66//66 40//40
f 3//3 10//10 65//65
f 36//36 56//56 61//61
f 70//70 68//68 39//39
f 58//58 71//71 48//48
f 25//25 76//76 24//24
f 77//77 78//78 33//33
f 25//25 35//35 6//6
f 9//9 8//8 73//73
f 33//33 53//53 77//77
f 63//63 74//74 53//53
f 34//34 23//23 22//22
f 21//21 1//1 32//32
f 40//40 75//75 30//30
f 66//66 42//42 64//64
f 67//67 10//10 2//2
f 37//37 27//27 26//26
f 28//28 38//38 26//26
f 70//70 69//69 71//71
f 6//6 76//76 25//25
f 5//5 4//4 72//72
f 62//62 53//53 43//43
f 33//33 78//78 34//34
f 32//32 20//20 21//21
f 79//79 80//80 81//81
f 82//82 83//83 84//84
f 85//85 86//86 87//87
f 88//88 89//89 90//90
f 91//91 85//85 92//92
f 87//87 82//82 84//84
f 93//93 94//94 95//95
f 96//96 97//97 98//98
f 99//99 100//100 101//101
f 85//85 81//81 102//102
f 84//84 92//92 87//87
f 103//103 95//95 104//104
f 93//93 105//105 106//106
f 88//88 107//107 108//108
f 96//96 109//109 110//110
f 111//111 112//112 113//113
f 114//114 115//115 100//100
f 85//85 102//102 86//86
f 84//84 83//83 116//116
f 106//106 94//94 93//93
f 117//117 118//118 119//119
f 108//108 89//89 88//88
f 120//120 121//121 122//122
f 110//110 97//97 96//96
f 109//109 123//123 124//124
f 125//125 113//113 126//126
f 101//101 127//127 99//99
f 100//100 99//99 114//114
f 91//91 92//92 115//115
f 87//87 92//92 85//85
f 116//116 104//104 84//84
f 104//104 116//116 103//103
f 105//105 128//128 119//119
f 117//117 129//129 130//130
f 107//107 131//131 122//122
f 120//120 132//132 133//133
f 124//124 110//110 109//109
f 81//81 80//80 124//124
f 134//134 126//126 113//113
f 127//127 101//101 111//111
f 115//115 114//114 135//135
f 119//119 106//106 105//105
f 119//119 128//128 117//117
f 130//130 118//118 117//117
f 136//136 90//90 137//137
f 122//122 108//108 107//107
f 122//122 131//131 120//120
f 133//133 121//121 120//120
f 138//138 98//98 139//139
f 124//124 123//123 81//81
f 81//81 85//85 140//140
f 113//113 112//112 134//134
f 141//141 142//142 126//126
f 111//111 113//113 127//127
f 115//115 135//135 91//91
f 129//129 143//143 144//144
f 90//90 136//136 88//88
f 132//132 145//145 146//146
f 81//81 140//140 79//79
f 147//147 148//148 141//141
f 149//149 125//125 126//126
f 144//144 130//130 129//129
f 137//137 144//144 143//143
f 146//146 133//133 132//132
f 139//139 146//146 145//145
f 141//141 126//126 150//150
f 126//126 142//142 151//151
f 143//143 152//152 137//137
f 137//137 152//152 136//136
f 145//145 153//153 139//139
f 139//139 153//153 138//138
f 141//141 150//150 154//154
f 155//155 149//149 126//126
f 156//156 147//147 141//141
f 126//126 151//151 155//155
f 141//141 154//154 156//156
f 95//95 103//103 93//93
f 98//98 138//138 96//96
f 157//157 158//158 159//159
f 159//159 160//160 157//157
f 161//161 162//162 163//163
f 163//163 164//164 161//161
f 165//165 166//166 164//164
f 167//167 168//168 166//166
f 169//169 170//170 168//168
f 171//171 172//172 170//170
f 173//173 174//174 172//172
f 175//175 176//176 174//174
f 174//174 173//173 175//175
f 172//172 171//171 173//173
f 170//170 169//169 171//171
f 168//168 167//167 169//169
f 166//166 165//165 167//167
f 164//164 163//163 165//165
f 177//177 178//178 179//179
f 179//179 180//180 177//177
f 181//181 182//182 183//183
f 182//182 181//181 184//184
f 183//183 185//185 181//181
f 186//186 187//187 188//188
f 189//189 190//190 187//187
f 191//191 192//192 190//190
f 193//193 188//188 185//185
f 194//194 195//195 192//192
f 188//188 193//193 186//186
f 192//192 191//191 194//194
f 190//190 189//189 191//191
f 187//187 186//186 189//189
f 184//184 196//196 182//182
f 185//185 183//183 193//193
f 197//197 198//198 199//199
f 199//199 200//200 197//197
f 201//201 202//202 203//203
f 204//204 203//203 205//205
f 203//203 204//204 201//201
f 206//206 207//207 208//208
f 209//209 210//210 211//211
f 205//205 211//211 204//204
f 202//202 201//201 212//212
f 213//213 212//212 214//214
f 211//211 205//205 209//209
f 215//215 214//214 216//216
f 208//208 216//216 206//206
f 216//216 208//208 215//215
f 214//214 215//215 213//213
f 212//212 213//213 202//202
f 217//217 218//218 219//219
f 219//219 220//220 217//217
f 221//221 222//222 223//223
f 224//224 225//225 222//222
f 222//222 221//221 224//224
f 223//223 226//226 221//221
f 227//227 228//228 229//229
f 230//230 231//231 232//232
f 233//233 229//229 234//234
f 232//232 235//235 230//230
f 234//234 236//236 233//233
f 229//229 233//233 227//227
f 231//231 230//230 236//236
f 236//236 234//234 231//231
f 237//237 238//238 239//239
f 240//240 239//239 241//241
f 241//241 242//242 240//240
f 238//238 237//237 243//243
f 244//244 243//243 245//245
f 239//239 240//240 237//237
f 246//246 245//245 247//247
f 247//247 248//248 246//246
f 245//245 246//246 244//244
f 243//243 244//244 238//238
f 249//249 250//250 251//251
f 251//251 250//250 252//252
f 253//253 252//252 254//254
f 255//255 254//254 256//256
f 257//257 256//256 258//258
f 259//259 260//260 261//261
f 261//261 262//262 259//259
f 260//260 259//259 263//263
f 263//263 258//258 260//260
f 251//251 264//264 249//249
f 252//252 253//253 251//251
f 254//254 255//255 253//253
f 256//256 257//257 255//255
f 258//258 263//263 257//257
f 265//265 266//266 267//267
f 268//268 267//267 269//269
f 269//269 270//270 268//268
f 267//267 268//268 265//265
f 271//271 272//272 273//273
f 273//273 274//274 275//275
f 275//275 274//274 276//276
f 277//277 276//276 278//278
f 276//276 277//277 275//275
f 275//275 279//279 273//273
f 273//273 279//279 271//271
f 278//278 280//280 277//277
f 281//281 282//282 283//283
f 284//284 283//283 285//285
f 285//285 286//286 284//284
f 283//283 284//284 281//281
f 287//287 288//288 289//289
f 289//289 290//290 287//287
f 291//291 292//292 293//293
f 294//294 293//293 295//295
f 296//296 295//295 297//297
f 298//298 299//299 300//300
f 300//300 301//301 298//298
f 299//299 298//298 302//302
f 297//297 302//302 296//296
f 295//295 296//296 294//294
f 293//293 294//294 291//291
f 303//303 304//304 305//305
f 305//305 306//306 303//303
f 292//292 291//291 304//304
f 302//302 297//297 299//299
f 304//304 303//303 292//292
f 307//307 308//308 309//309
f 309//309 310//310 307//307
f 311//311 312//312 313//313
f 312//312 311//311 314//314
f 315//315 314//314 316//316
f 317//317 316//316 318//318
f 318//318 319//319 317//317
f 316//316 317//317 315//315
f 314//314 315//315 312//312
f 320//320 313//313 321//321
f 322//322 321//321 323//323
f 324//324 325//325 326//326
f 323//323 326//326 322//322
f 326//326 323//323 324//324
f 321//321 322//322 320//320
f 313//313 320//320 311//311
f 327//327 328//328 329//329
f 329//329 330//330 327//327
f 331//331 332//332 333//333
f 334//334 333//333 335//335
f 336//336 335//335 337//337
f 338//338 339//339 340//340
f 341//341 340//340 342//342
f 333//333 334//334 331//331
f 337//337 342//342 336//336
f 335//335 336//336 334//334
f 343//343 344//344 332//332
f 340//340 341//341 338//338
f 342//342 337//337 341//341
f 332//332 331//331 343//343
f 344//344 343//343 345//345
f 345//345 346//346 344//344
f 347//347 348//348 349//349
f 349//349 350//350 347//347
f 351//351 352//352 353//353
f 354//354 355//355 356//356
f 356//356 353//353 354//354
f 353//353 356//356 351//351
